<svg width="256" height="100" viewBox="0 0 256 100" fill="none" xmlns="http://www.w3.org/2000/svg">
<path d="M223.321 89.7181H36.3545C26.4563 89.7181 17.9803 83.7941 16.2344 75.6604L3.71737 17.4665C1.61947 7.74592 11.2923 -0.940257 23.0631 0.0823381L236.626 18.6889C246.947 19.5939 254.156 27.6454 252.255 36.167L243.413 75.7661C241.611 83.8529 233.163 89.7063 223.307 89.7063L223.321 89.7181Z" fill="#DE6262"/>
<path d="M237.175 99.7089C236.513 99.7089 235.838 99.6854 235.162 99.6266L16.9098 80.5969C11.6862 80.1385 6.88498 77.87 3.74517 74.3556C0.605359 70.8411 -0.647748 66.3511 0.323762 62.0374L9.34895 21.5803C11.2497 13.0469 20.1904 6.85254 30.5814 6.85254H221.645C232.12 6.85254 240.597 11.4248 242.455 20.0287L240.78 19.4881C238.344 12.565 231.431 8.02794 221.645 8.02794H30.5955C20.8804 8.02794 12.531 13.8226 10.7429 21.7918L1.70359 62.249C0.802477 66.2923 1.92887 70.3475 4.87156 73.6386C7.82833 76.9414 12.1508 78.9866 17.0506 79.4215L235.303 98.4394C240.822 98.9213 246.144 97.2523 249.917 93.8671C253.691 90.482 255.296 85.9215 254.31 81.3727L248.27 54.0682L249.087 50.4127L255.704 81.1611C256.76 86.086 255.028 91.0109 250.959 94.6664C247.341 97.9105 242.413 99.6971 237.189 99.6971L237.175 99.7089Z" fill="#091E42"/>
<path d="M29.652 32.1354C31.5528 33.7222 31.5528 36.2846 29.652 37.8713C27.7512 39.4581 24.6818 39.4581 22.7811 37.8713C20.8803 36.2846 20.8803 33.7222 22.7811 32.1354C24.6818 30.5486 27.7512 30.5486 29.652 32.1354Z" stroke="white" stroke-miterlimit="10"/>
<path d="M238.949 80.2678C241.695 82.5599 241.695 86.2859 238.949 88.5779C236.204 90.8699 231.74 90.8699 228.995 88.5779C226.249 86.2859 226.249 82.5599 228.995 80.2678C231.74 77.9758 236.204 77.9758 238.949 80.2678Z" stroke="#091E42" stroke-miterlimit="10"/>
</svg>
