<svg width="232" height="173" viewBox="0 0 232 173" fill="none" xmlns="http://www.w3.org/2000/svg">
<g clip-path="url(#clip0_12736_12072)">
<path d="M205.057 5.09375H32.9429C21.9287 5.09375 13 11.2535 13 18.852V131.335C13 138.934 21.9287 145.094 32.9429 145.094H205.057C216.071 145.094 225 138.934 225 131.335V18.852C225 11.2535 216.071 5.09375 205.057 5.09375Z" fill="#DE6262"/>
<path d="M1.16211 53.9863V101.075" stroke="#253858" stroke-width="1.6338" stroke-miterlimit="10"/>
<path d="M1.16211 124.777V106.578" stroke="#253858" stroke-width="1.6338" stroke-miterlimit="10"/>
<path d="M203.516 0.816895H35.523C20.4371 0.816895 8.20703 9.40415 8.20703 19.9965V130.955C8.20703 141.548 20.4371 150.135 35.523 150.135H41V170.426L78.2646 150.135H203.516C218.602 150.135 230.832 141.548 230.832 130.955V19.9965C230.832 9.40415 218.602 0.816895 203.516 0.816895Z" stroke="#253858" stroke-width="1.6338" stroke-miterlimit="10"/>
<path d="M218.928 119.812V123.731C218.928 125.789 218.647 127.471 218.077 128.786C217.506 130.101 216.543 131.219 215.168 132.134C213.793 133.057 212.249 133.669 210.538 133.971V130.835C211.753 130.223 212.446 129.406 212.614 128.378H210.538V119.812H218.928ZM207.722 119.812V123.731C207.722 125.789 207.441 127.471 206.871 128.786C206.3 130.101 205.337 131.219 203.971 132.134C202.605 133.057 201.062 133.669 199.322 133.971V130.835C200.538 130.223 201.23 129.406 201.399 128.378H199.322V119.812H207.713H207.722Z" fill="white"/>
<path d="M23.9609 23.9619V20.0422C23.9609 17.9844 24.2416 16.3023 24.8121 14.9876C25.3827 13.6729 26.3462 12.5541 27.7212 11.6396C29.0962 10.7168 30.6396 10.1044 32.3513 9.80225V12.9379C31.1353 13.5504 30.4431 14.367 30.2748 15.3959H32.3513V23.9619H23.9609ZM35.1668 23.9619V20.0422C35.1668 17.9844 35.4474 16.3023 36.018 14.9876C36.5886 13.6729 37.552 12.5541 38.9177 11.6396C40.2834 10.7168 41.8267 10.1044 43.5666 9.80225V12.9379C42.3506 13.5504 41.6584 14.367 41.49 15.3959H43.5666V23.9619H35.1762H35.1668Z" fill="white"/>
<path d="M47 159.594V142.594H79L47 159.594Z" fill="#DE6262"/>
</g>
<defs>
<clipPath id="clip0_12736_12072">
<rect width="232" height="172.094" fill="white"/>
</clipPath>
</defs>
</svg>
