<svg width="256" height="103" viewBox="0 0 256 103" fill="none" xmlns="http://www.w3.org/2000/svg">
<g clip-path="url(#clip0_12574_18108)">
<path d="M223.321 89.7181H36.3545C26.4563 89.7181 17.9803 83.7941 16.2344 75.6604L3.71737 17.4665C1.61947 7.74592 11.2923 -0.940257 23.0631 0.0823381L236.626 18.6889C246.947 19.5939 254.156 27.6454 252.255 36.167L243.413 75.7661C241.611 83.8529 233.163 89.7063 223.307 89.7063L223.321 89.7181Z" fill="#DE6262"/>
<path d="M237.175 99.7089C236.513 99.7089 235.838 99.6854 235.162 99.6266L16.9098 80.5969C11.6862 80.1385 6.88498 77.87 3.74517 74.3556C0.605359 70.8411 -0.647748 66.3511 0.323762 62.0374L9.34895 21.5803C11.2497 13.0469 20.1904 6.85254 30.5814 6.85254H221.645C232.12 6.85254 240.597 11.4248 242.455 20.0287L240.78 19.4881C238.344 12.565 231.431 8.02794 221.645 8.02794H30.5955C20.8804 8.02794 12.531 13.8226 10.7429 21.7918L1.70359 62.249C0.802477 66.2923 1.92887 70.3475 4.87156 73.6386C7.82833 76.9414 12.1508 78.9866 17.0506 79.4215L235.303 98.4394C240.822 98.9213 246.144 97.2523 249.917 93.8671C253.691 90.482 255.296 85.9215 254.31 81.3727L248.27 54.0682L249.087 50.4127L255.704 81.1611C256.76 86.086 255.028 91.0109 250.959 94.6664C247.341 97.9105 242.413 99.6971 237.189 99.6971L237.175 99.7089Z" fill="#28212D"/>
<path d="M29.652 32.1354C31.5528 33.7222 31.5528 36.2846 29.652 37.8713C27.7512 39.4581 24.6818 39.4581 22.7811 37.8713C20.8803 36.2846 20.8803 33.7222 22.7811 32.1354C24.6818 30.5486 27.7512 30.5486 29.652 32.1354Z" stroke="white" stroke-miterlimit="10"/>
<path d="M238.949 80.2678C241.695 82.5599 241.695 86.2859 238.949 88.5779C236.204 90.8699 231.74 90.8699 228.995 88.5779C226.249 86.2859 226.249 82.5599 228.995 80.2678C231.74 77.9758 236.204 77.9758 238.949 80.2678Z" stroke="#28212D" stroke-miterlimit="10"/>
<path d="M69.4149 37.4242C69.1069 37.4242 68.8455 37.3168 68.6309 37.1022C68.4162 36.8875 68.3089 36.6168 68.3089 36.2902C68.3089 35.9822 68.4162 35.7255 68.6309 35.5202C68.8455 35.3055 69.1069 35.1982 69.4149 35.1982C69.7322 35.1982 69.9982 35.3055 70.2129 35.5202C70.4275 35.7348 70.5349 35.9915 70.5349 36.2902C70.5349 36.6075 70.4275 36.8782 70.2129 37.1022C69.9982 37.3168 69.7322 37.4242 69.4149 37.4242ZM69.5969 33.3362C69.3262 33.3455 69.0835 33.2848 68.8689 33.1542C68.6635 33.0235 68.5002 32.8368 68.3789 32.5942C68.2669 32.3515 68.2155 32.0855 68.2249 31.7962C68.2342 31.2642 68.4069 30.7228 68.7429 30.1722C69.0882 29.6122 69.5269 29.1642 70.0589 28.8282L70.7169 29.5002C70.3155 29.7988 70.0075 30.0975 69.7929 30.3962C69.5875 30.6855 69.4429 30.9375 69.3589 31.1522L69.3449 31.1942L69.3729 31.1802C69.4102 31.1802 69.4475 31.1755 69.4849 31.1662C69.5222 31.1475 69.5642 31.1382 69.6109 31.1382C69.9002 31.1382 70.1522 31.2455 70.3669 31.4602C70.5815 31.6655 70.6889 31.9222 70.6889 32.2302C70.6889 32.5288 70.5815 32.7902 70.3669 33.0142C70.1522 33.2288 69.8955 33.3362 69.5969 33.3362ZM79.5345 37.4102C78.9091 37.4102 78.3865 37.2422 77.9665 36.9062C77.5465 36.5702 77.1731 36.0382 76.8465 35.3102L74.8585 30.7042L76.1605 30.0182L78.0785 34.5542C78.2465 34.9555 78.4331 35.2308 78.6385 35.3802C78.8438 35.5295 79.1425 35.6042 79.5345 35.6042H79.6885L79.7865 36.5002L79.6885 37.4102H79.5345ZM74.9565 37.4802C74.2658 37.4802 73.6731 37.3682 73.1785 37.1442C72.6838 36.9202 72.2451 36.6728 71.8625 36.4022L72.5485 35.1142L72.6045 35.1422C72.8938 35.3102 73.2158 35.4548 73.5705 35.5762C73.9251 35.6975 74.3358 35.7582 74.8025 35.7582C75.3811 35.7582 75.8618 35.6695 76.2445 35.4922C76.6271 35.3148 76.9445 35.1142 77.1965 34.8902L77.2245 34.8622L78.0225 35.9542L77.9945 35.9962C77.7891 36.2295 77.5698 36.4488 77.3365 36.6542C77.1125 36.8595 76.7951 37.0508 76.3845 37.2282C75.9738 37.3962 75.4978 37.4802 74.9565 37.4802ZM79.5632 35.6042H79.6752C80.3939 35.6042 80.9539 35.5715 81.3552 35.5062C81.7566 35.4408 82.0459 35.3428 82.2232 35.2122C82.4006 35.0722 82.5172 34.8855 82.5732 34.6522C82.6106 34.4468 82.6199 34.2042 82.6012 33.9242C82.5826 33.6348 82.5406 33.2988 82.4752 32.9162L82.4612 32.8182L83.7772 32.5802C83.8892 33.2335 83.9499 33.9942 83.9592 34.8622C84.0246 35.0955 84.1506 35.2775 84.3372 35.4082C84.5239 35.5388 84.7712 35.6042 85.0792 35.6042H85.1632L85.2612 36.5002L85.1632 37.4102H85.0792C84.6312 37.4102 84.2299 37.2888 83.8752 37.0462C83.5206 36.7942 83.2452 36.4722 83.0492 36.0802L83.3852 36.1502C83.2266 36.4582 83.0026 36.7055 82.7132 36.8922C82.4239 37.0695 82.0366 37.2002 81.5512 37.2842C81.0659 37.3682 80.4406 37.4102 79.6752 37.4102H79.5632V35.6042ZM82.6152 40.4762C82.2139 40.4762 81.9152 40.4762 81.7192 40.4762C81.5326 40.4762 81.2479 40.4762 80.8652 40.4762C80.8559 40.1402 80.8466 39.8882 80.8372 39.7202C80.8279 39.5615 80.8232 39.3188 80.8232 38.9922C81.2246 38.9922 81.5232 38.9922 81.7192 38.9922C81.9246 38.9922 82.2232 38.9922 82.6152 38.9922C82.6152 39.3282 82.6152 39.5802 82.6152 39.7482C82.6152 39.9162 82.6152 40.1588 82.6152 40.4762ZM80.9212 40.4762C80.5199 40.4762 80.2212 40.4762 80.0252 40.4762C79.8292 40.4762 79.5352 40.4762 79.1432 40.4762C79.1432 40.1402 79.1432 39.8882 79.1432 39.7202C79.1432 39.5615 79.1432 39.3188 79.1432 38.9922C79.5352 38.9922 79.8246 38.9922 80.0112 38.9922C80.2072 38.9922 80.5012 38.9922 80.8932 38.9922C80.8932 39.3282 80.8979 39.5802 80.9072 39.7482C80.9166 39.9162 80.9212 40.1588 80.9212 40.4762ZM85.0183 35.6042H85.1163C85.8163 35.5948 86.3297 35.5202 86.6563 35.3802C86.983 35.2308 87.1883 34.9882 87.2723 34.6522C87.3003 34.4655 87.305 34.2508 87.2863 34.0082C87.2677 33.7562 87.235 33.4482 87.1883 33.0842C87.179 33.0002 87.165 32.9115 87.1463 32.8182L88.4483 32.5802C88.579 33.2335 88.6443 33.9942 88.6443 34.8622C88.7003 35.0955 88.8263 35.2775 89.0223 35.4082C89.2183 35.5388 89.4657 35.6042 89.7643 35.6042H89.8483L89.9463 36.5002L89.8483 37.4102H89.7643C89.3163 37.4102 88.9103 37.2888 88.5463 37.0462C88.1917 36.7942 87.921 36.4722 87.7343 36.0802L88.0983 36.1362C87.865 36.5842 87.5057 36.9108 87.0203 37.1162C86.535 37.3122 85.9003 37.4102 85.1163 37.4102H85.0183V35.6042ZM86.0123 29.5002C86.3857 29.5002 86.6657 29.5002 86.8523 29.5002C87.039 29.5002 87.319 29.5002 87.6923 29.5002C87.6923 29.8828 87.6923 30.1675 87.6923 30.3542C87.6923 30.5408 87.6923 30.8208 87.6923 31.1942C87.3097 31.1942 87.025 31.1942 86.8383 31.1942C86.6517 31.1942 86.3763 31.1942 86.0123 31.1942C86.0123 30.8115 86.0123 30.5268 86.0123 30.3402C86.0123 30.1535 86.0123 29.8735 86.0123 29.5002ZM89.7214 35.6042H90.1554C90.9954 35.6042 91.6814 35.5342 92.2134 35.3942C92.7454 35.2542 93.0954 35.0582 93.2634 34.8062C93.2541 34.4888 93.1468 34.1388 92.9414 33.7562C92.7361 33.3642 92.4094 32.9302 91.9614 32.4542C91.5228 31.9688 90.9814 31.4602 90.3374 30.9282L90.5054 29.3322L95.6714 27.1202L96.1754 28.5762L92.0174 30.3682L92.1014 30.4522C92.5401 30.8348 92.9741 31.2922 93.4034 31.8242C93.8421 32.3562 94.1921 32.9348 94.4534 33.5602C94.7148 34.1855 94.7614 34.7688 94.5934 35.3102C94.3974 36.0102 93.9074 36.5375 93.1234 36.8922C92.3488 37.2375 91.3594 37.4102 90.1554 37.4102H89.7214V35.6042ZM100.052 42.1422C99.949 41.0315 99.8604 39.9162 99.7857 38.7962C99.7204 37.6855 99.7064 36.7195 99.7437 35.8982C99.7624 35.5248 99.865 35.2028 100.052 34.9322C100.238 34.6522 100.481 34.4562 100.78 34.3442C101.078 34.2228 101.4 34.1995 101.746 34.2742C101.802 34.1622 101.858 34.0548 101.914 33.9522C102.138 33.5042 102.38 33.1168 102.642 32.7902C102.903 32.4542 103.183 32.1882 103.482 31.9922C103.78 31.7962 104.088 31.6888 104.406 31.6702C105.236 31.6235 105.885 31.9828 106.352 32.7482C106.828 33.5135 107.014 34.3675 106.912 35.3102C106.818 36.2528 106.436 36.9202 105.764 37.3122C105.521 37.4522 105.222 37.5035 104.868 37.4662C104.522 37.4382 104.079 37.3122 103.538 37.0882C103.006 36.8642 102.334 36.5282 101.522 36.0802C101.456 36.0522 101.396 36.0522 101.34 36.0802C101.284 36.0988 101.256 36.1548 101.256 36.2482C101.237 36.9202 101.256 37.7182 101.312 38.6422C101.377 39.5755 101.456 40.5368 101.55 41.5262L101.634 42.4362L100.094 42.7442L100.052 42.1422ZM105.302 35.7722C105.535 35.6322 105.652 35.3568 105.652 34.9462C105.661 34.5355 105.558 34.1575 105.344 33.8122C105.138 33.4668 104.858 33.2942 104.504 33.2942C104.308 33.2942 104.102 33.3968 103.888 33.6022C103.673 33.8075 103.449 34.1062 103.216 34.4982L102.992 34.9042C103.561 35.2682 104.051 35.5295 104.462 35.6882C104.882 35.8375 105.162 35.8655 105.302 35.7722ZM111.334 37.4102C110.643 37.4102 110.092 37.2842 109.682 37.0322C109.271 36.7708 108.977 36.3882 108.8 35.8842C108.622 35.3708 108.538 34.7175 108.548 33.9242C108.538 32.8508 108.506 31.7028 108.45 30.4802C108.394 29.2482 108.314 28.2868 108.212 27.5962L109.738 27.2462C109.831 27.9275 109.906 28.9495 109.962 30.3122C110.018 31.6655 110.041 32.7995 110.032 33.7142C110.013 34.2368 110.032 34.6242 110.088 34.8762C110.153 35.1282 110.274 35.3148 110.452 35.4362C110.638 35.5482 110.932 35.6042 111.334 35.6042H111.404L111.502 36.5002L111.404 37.4102H111.334ZM111.255 35.6042H111.983C112.683 35.6042 113.187 35.5202 113.495 35.3522C113.812 35.1842 113.966 34.9275 113.957 34.5822C113.957 34.3582 113.859 33.9615 113.663 33.3922C113.476 32.8135 113.322 32.3842 113.201 32.1042L114.531 31.3902C114.708 31.7822 114.89 32.3095 115.077 32.9722C115.263 33.6348 115.357 34.2042 115.357 34.6802C115.357 35.5762 115.063 36.2575 114.475 36.7242C113.896 37.1815 113.065 37.4102 111.983 37.4102H111.255V35.6042ZM112.585 28.7022C112.958 28.7022 113.238 28.7022 113.425 28.7022C113.611 28.7022 113.891 28.7022 114.265 28.7022C114.265 29.0848 114.265 29.3695 114.265 29.5562C114.265 29.7428 114.265 30.0228 114.265 30.3962C113.882 30.3962 113.597 30.3962 113.411 30.3962C113.224 30.3962 112.949 30.3962 112.585 30.3962C112.585 30.0135 112.585 29.7288 112.585 29.5422C112.585 29.3555 112.585 29.0755 112.585 28.7022ZM121.84 37.5642C121.803 36.9668 121.803 36.3648 121.84 35.7582C123.035 35.7582 123.973 35.6788 124.654 35.5202C125.345 35.3522 125.877 35.0862 126.25 34.7222C126.633 34.3488 126.941 33.8308 127.174 33.1682L128.49 33.3082C128.322 33.8402 128.233 34.2742 128.224 34.6102C128.224 34.9462 128.308 35.1982 128.476 35.3662C128.653 35.5248 128.915 35.6042 129.26 35.6042L129.358 36.5002L129.26 37.4102C128.868 37.4102 128.504 37.3262 128.168 37.1582C127.841 36.9808 127.585 36.7382 127.398 36.4302C127.211 36.1128 127.123 35.7488 127.132 35.3382L127.398 35.3802C127.025 35.9215 126.572 36.3555 126.04 36.6822C125.517 36.9995 124.911 37.2282 124.22 37.3682C123.539 37.4988 122.745 37.5642 121.84 37.5642ZM121.938 37.5642C120.846 37.5735 119.899 37.4708 119.096 37.2562C118.303 37.0322 117.687 36.7055 117.248 36.2762C116.809 35.8468 116.562 35.3335 116.506 34.7362C116.469 34.3068 116.501 33.8355 116.604 33.3222C116.716 32.8088 116.861 32.3468 117.038 31.9362L118.256 32.5242C118.237 32.6082 118.209 32.6968 118.172 32.7902C118.079 33.0888 118.004 33.3828 117.948 33.6722C117.892 33.9522 117.873 34.1948 117.892 34.4002C117.939 34.6708 118.121 34.9088 118.438 35.1142C118.755 35.3102 119.208 35.4688 119.796 35.5902C120.384 35.7022 121.093 35.7582 121.924 35.7582C121.971 36.3462 121.975 36.9482 121.938 37.5642ZM120.552 31.1942C120.953 31.1942 121.247 31.1942 121.434 31.1942C121.63 31.1942 121.919 31.1942 122.302 31.1942C122.311 31.5302 122.321 31.7822 122.33 31.9502C122.339 32.1088 122.344 32.3515 122.344 32.6782C121.943 32.6782 121.639 32.6782 121.434 32.6782C121.238 32.6782 120.944 32.6782 120.552 32.6782C120.552 32.3422 120.552 32.0902 120.552 31.9222C120.552 31.7542 120.552 31.5115 120.552 31.1942ZM122.246 31.1942C122.647 31.1942 122.946 31.1942 123.142 31.1942C123.338 31.1942 123.632 31.1942 124.024 31.1942C124.024 31.5302 124.024 31.7822 124.024 31.9502C124.024 32.1088 124.024 32.3515 124.024 32.6782C123.632 32.6782 123.338 32.6782 123.142 32.6782C122.955 32.6782 122.666 32.6782 122.274 32.6782C122.274 32.3422 122.269 32.0902 122.26 31.9222C122.251 31.7542 122.246 31.5115 122.246 31.1942ZM133.912 37.4102C133.324 37.4102 132.824 37.2608 132.414 36.9622C132.012 36.6542 131.732 36.1968 131.574 35.5902C131.518 35.3848 131.429 34.9835 131.308 34.3862C131.205 33.8728 131.098 33.3875 130.986 32.9302L132.26 32.5102L132.33 32.8882C132.442 33.3922 132.591 33.9848 132.778 34.6662C132.871 34.9928 133.006 35.2308 133.184 35.3802C133.361 35.5295 133.599 35.6042 133.898 35.6042H133.982L134.066 36.5002L133.982 37.4102H133.912ZM129.124 35.6042H129.208C129.926 35.6042 130.472 35.5202 130.846 35.3522C131.219 35.1842 131.429 34.9368 131.476 34.6102L132.652 34.8342C132.521 35.7302 132.176 36.3835 131.616 36.7942C131.056 37.2048 130.258 37.4102 129.222 37.4102H129.124V35.6042ZM129.208 38.9222C129.581 38.9222 129.861 38.9222 130.048 38.9222C130.234 38.9222 130.514 38.9222 130.888 38.9222C130.888 39.3048 130.888 39.5895 130.888 39.7762C130.888 39.9628 130.888 40.2428 130.888 40.6162C130.505 40.6162 130.22 40.6162 130.034 40.6162C129.847 40.6162 129.572 40.6162 129.208 40.6162C129.208 40.2335 129.208 39.9488 129.208 39.7622C129.208 39.5755 129.208 39.2955 129.208 38.9222ZM133.841 35.6042H134.471C135.423 35.6042 136.095 35.5202 136.487 35.3522C136.879 35.1748 137.075 34.9042 137.075 34.5402C137.065 34.3068 136.967 33.9195 136.781 33.3782C136.603 32.8275 136.449 32.4028 136.319 32.1042L137.635 31.3902C137.821 31.7728 138.008 32.2862 138.195 32.9302C138.381 33.5742 138.47 34.1342 138.461 34.6102C138.461 35.5248 138.148 36.2202 137.523 36.6962C136.897 37.1722 135.969 37.4102 134.737 37.4102H133.841V35.6042ZM134.443 28.9542C134.891 28.9542 135.222 28.9542 135.437 28.9542C135.651 28.9542 135.978 28.9542 136.417 28.9542C136.417 29.1035 136.417 29.2248 136.417 29.3182C136.426 29.4115 136.431 29.5282 136.431 29.6682C136.44 29.9202 136.449 30.1768 136.459 30.4382C136.001 30.4382 135.661 30.4382 135.437 30.4382C135.222 30.4382 134.891 30.4382 134.443 30.4382C134.443 30.1022 134.443 29.8548 134.443 29.6962C134.443 29.5282 134.443 29.2808 134.443 28.9542ZM136.361 28.9542C136.603 28.9542 136.785 28.9542 136.907 28.9542C137.028 28.9542 137.21 28.9542 137.453 28.9542C137.761 28.9542 138.069 28.9542 138.377 28.9542C138.377 29.2902 138.377 29.5422 138.377 29.7102C138.377 29.8688 138.377 30.1115 138.377 30.4382C137.919 30.4382 137.579 30.4382 137.355 30.4382C137.14 30.4382 136.818 30.4382 136.389 30.4382C136.389 30.2702 136.384 30.1488 136.375 30.0742C136.375 29.9995 136.375 29.8828 136.375 29.7242C136.375 29.5655 136.375 29.4348 136.375 29.3322C136.375 29.2295 136.37 29.1035 136.361 28.9542ZM135.689 27.1902C136.015 27.1902 136.258 27.1902 136.417 27.1902C136.575 27.1902 136.818 27.1902 137.145 27.1902C137.145 27.5262 137.145 27.7735 137.145 27.9322C137.145 28.0908 137.145 28.3335 137.145 28.6602C136.893 28.6602 136.701 28.6602 136.571 28.6602C136.449 28.6602 136.267 28.6602 136.025 28.6602C135.903 28.6602 135.791 28.6602 135.689 28.6602C135.689 28.4828 135.689 28.3522 135.689 28.2682C135.689 28.1748 135.689 28.0395 135.689 27.8622C135.689 27.7128 135.689 27.6008 135.689 27.5262C135.689 27.4515 135.689 27.3395 135.689 27.1902ZM145.486 33.9102C145.262 34.4142 145.089 34.8715 144.968 35.2822C144.847 35.6928 144.781 36.1035 144.772 36.5142C144.753 37.0742 144.856 37.5408 145.08 37.9142C145.304 38.2875 145.631 38.5675 146.06 38.7542C146.499 38.9408 147.031 39.0342 147.656 39.0342C148.356 39.0342 148.949 38.9128 149.434 38.6702C149.929 38.4368 150.302 38.1242 150.554 37.7322C150.815 37.3495 150.946 36.9435 150.946 36.5142C150.946 36.1875 150.876 35.7582 150.736 35.2262C150.596 34.6942 150.433 34.1435 150.246 33.5742L150.092 33.0982L151.422 32.4122C151.711 33.2242 151.926 33.9662 152.066 34.6382C152.215 35.3008 152.29 35.9262 152.29 36.5142C152.29 37.2702 152.099 37.9795 151.716 38.6422C151.333 39.3142 150.792 39.8508 150.092 40.2522C149.392 40.6535 148.58 40.8542 147.656 40.8542C146.751 40.8542 145.962 40.6675 145.29 40.2942C144.627 39.9302 144.128 39.4168 143.792 38.7542C143.456 38.0915 143.311 37.3448 143.358 36.5142C143.395 35.9728 143.503 35.4175 143.68 34.8482C143.867 34.2695 144.077 33.7375 144.31 33.2522L145.528 33.8122L145.486 33.9102ZM147.124 31.6842C147.497 31.6842 147.777 31.6842 147.964 31.6842C148.151 31.6842 148.431 31.6842 148.804 31.6842C148.804 32.0668 148.804 32.3515 148.804 32.5382C148.804 32.7248 148.804 33.0048 148.804 33.3782C148.421 33.3782 148.137 33.3782 147.95 33.3782C147.763 33.3782 147.488 33.3782 147.124 33.3782C147.124 32.9955 147.124 32.7108 147.124 32.5242C147.124 32.3375 147.124 32.0575 147.124 31.6842ZM159.805 27.2462C159.954 28.4222 160.066 29.4908 160.141 30.4522C160.216 31.4042 160.244 32.3748 160.225 33.3642C160.206 34.3068 159.922 35.1048 159.371 35.7582C158.82 36.4022 158.097 36.8968 157.201 37.2422C156.305 37.5782 155.306 37.7742 154.205 37.8302L153.757 36.1222C154.737 36.0475 155.582 35.9168 156.291 35.7302C157.01 35.5435 157.593 35.2635 158.041 34.8902C158.489 34.5075 158.713 34.0035 158.713 33.3782C158.713 32.4448 158.676 31.5582 158.601 30.7182C158.536 29.8688 158.424 28.8328 158.265 27.6102V27.5962L159.805 27.2462ZM154.751 28.4782C155.498 30.0368 156.006 31.4695 156.277 32.7762C156.557 34.0828 156.562 35.1188 156.291 35.8842L154.961 36.1222C155.222 35.5155 155.204 34.6195 154.905 33.4342C154.606 32.2395 154.121 30.8815 153.449 29.3602L154.751 28.4782ZM161.933 37.3262C162.027 36.6915 162.069 35.7022 162.059 34.3582C162.05 33.0142 162.013 31.6748 161.947 30.3402C161.882 29.0055 161.807 28.0908 161.723 27.5962L163.263 27.2462C163.338 27.7595 163.408 28.6975 163.473 30.0602C163.539 31.4228 163.571 32.8135 163.571 34.2322C163.571 35.6415 163.52 36.7288 163.417 37.4942L161.933 37.3262ZM178.436 37.4102C178.063 37.4102 177.736 37.2935 177.456 37.0602C177.176 36.8268 176.938 36.5328 176.742 36.1782C176.555 35.8235 176.364 35.3708 176.168 34.8202L176.14 34.7502L177.12 34.1622C177.288 34.7035 177.461 35.0815 177.638 35.2962C177.825 35.5015 178.091 35.6042 178.436 35.6042H178.534L178.632 36.5002L178.534 37.4102H178.436ZM170.82 34.5402C170.596 35.0442 170.423 35.5015 170.302 35.9122C170.181 36.3228 170.115 36.7335 170.106 37.1442C170.087 37.7042 170.19 38.1708 170.414 38.5442C170.638 38.9175 170.965 39.1975 171.394 39.3842C171.833 39.5708 172.365 39.6642 172.99 39.6642C173.69 39.6642 174.283 39.5428 174.768 39.3002C175.263 39.0668 175.636 38.7542 175.888 38.3622C176.149 37.9795 176.28 37.5735 176.28 37.1442C176.28 36.8175 176.21 36.3882 176.07 35.8562C175.93 35.3242 175.767 34.7735 175.58 34.2042L175.426 33.7282L176.756 33.0422C177.045 33.8542 177.26 34.5962 177.4 35.2682C177.549 35.9308 177.624 36.5562 177.624 37.1442C177.624 37.9002 177.433 38.6095 177.05 39.2722C176.667 39.9442 176.126 40.4808 175.426 40.8822C174.726 41.2835 173.914 41.4842 172.99 41.4842C172.085 41.4842 171.296 41.2975 170.624 40.9242C169.961 40.5602 169.462 40.0468 169.126 39.3842C168.79 38.7215 168.645 37.9748 168.692 37.1442C168.729 36.6028 168.837 36.0475 169.014 35.4782C169.201 34.8995 169.411 34.3675 169.644 33.8822L170.862 34.4422L170.82 34.5402ZM172.458 32.3002C172.831 32.3002 173.111 32.3002 173.298 32.3002C173.485 32.3002 173.765 32.3002 174.138 32.3002C174.138 32.6828 174.138 32.9675 174.138 33.1542C174.138 33.3408 174.138 33.6208 174.138 33.9942C173.755 33.9942 173.471 33.9942 173.284 33.9942C173.097 33.9942 172.822 33.9942 172.458 33.9942C172.458 33.6115 172.458 33.3268 172.458 33.1402C172.458 32.9535 172.458 32.6735 172.458 32.3002ZM178.384 35.6042H178.496C179.214 35.6042 179.774 35.5715 180.176 35.5062C180.577 35.4408 180.866 35.3428 181.044 35.2122C181.221 35.0722 181.338 34.8855 181.394 34.6522C181.431 34.4468 181.44 34.2042 181.422 33.9242C181.403 33.6348 181.361 33.2988 181.296 32.9162L181.282 32.8182L182.598 32.5802C182.71 33.2335 182.77 33.9942 182.78 34.8622C182.845 35.0955 182.971 35.2775 183.158 35.4082C183.344 35.5388 183.592 35.6042 183.9 35.6042H183.984L184.082 36.5002L183.984 37.4102H183.9C183.452 37.4102 183.05 37.2888 182.696 37.0462C182.341 36.7942 182.066 36.4722 181.87 36.0802L182.206 36.1502C182.047 36.4582 181.823 36.7055 181.534 36.8922C181.244 37.0695 180.857 37.2002 180.372 37.2842C179.886 37.3682 179.261 37.4102 178.496 37.4102H178.384V35.6042ZM182.542 40.4902C182.14 40.4902 181.842 40.4902 181.646 40.4902C181.459 40.4902 181.174 40.4902 180.792 40.4902C180.782 40.1542 180.773 39.9022 180.764 39.7342C180.754 39.5755 180.75 39.3328 180.75 39.0062C181.151 39.0062 181.45 39.0062 181.646 39.0062C181.851 39.0062 182.15 39.0062 182.542 39.0062C182.542 39.3422 182.542 39.5942 182.542 39.7622C182.542 39.9302 182.542 40.1728 182.542 40.4902ZM180.848 40.4902C180.446 40.4902 180.148 40.4902 179.952 40.4902C179.756 40.4902 179.462 40.4902 179.07 40.4902C179.07 40.1542 179.07 39.9022 179.07 39.7342C179.07 39.5755 179.07 39.3328 179.07 39.0062C179.462 39.0062 179.751 39.0062 179.938 39.0062C180.134 39.0062 180.428 39.0062 180.82 39.0062C180.82 39.3422 180.824 39.5942 180.834 39.7622C180.843 39.9302 180.848 40.1728 180.848 40.4902ZM183.839 35.6042H184.133C184.487 35.6042 184.814 35.4968 185.113 35.2822C185.421 35.0582 185.701 34.7268 185.953 34.2882L186.149 33.9242C186.419 33.4575 186.681 33.0608 186.933 32.7342C187.185 32.4075 187.451 32.1508 187.731 31.9642C188.02 31.7775 188.323 31.6795 188.641 31.6702C189.238 31.6515 189.714 31.8335 190.069 32.2162C190.433 32.5988 190.727 33.1495 190.951 33.8682C191.147 34.5122 191.319 34.9648 191.469 35.2262C191.627 35.4782 191.823 35.6042 192.057 35.6042H192.211L192.309 36.5002L192.211 37.4102H192.057C191.739 37.4102 191.464 37.3262 191.231 37.1582C190.997 36.9902 190.806 36.7522 190.657 36.4442C190.61 36.6215 190.517 36.7895 190.377 36.9482C190.246 37.0975 190.101 37.2188 189.943 37.3122C189.243 37.7135 188.057 37.3868 186.387 36.3322C186.107 36.6868 185.771 36.9575 185.379 37.1442C184.987 37.3215 184.557 37.4102 184.091 37.4102H183.839V35.6042ZM189.817 35.8842C189.835 35.8282 189.854 35.7535 189.873 35.6602C189.901 35.3522 189.877 35.0162 189.803 34.6522C189.728 34.2882 189.588 33.9708 189.383 33.7002C189.187 33.4295 188.953 33.2942 188.683 33.2942C188.533 33.2942 188.384 33.3502 188.235 33.4622C188.085 33.5648 187.931 33.7142 187.773 33.9102C187.623 34.1062 187.46 34.3582 187.283 34.6662L187.157 34.8902C187.558 35.1795 187.941 35.4082 188.305 35.5762C188.669 35.7348 188.981 35.8375 189.243 35.8842C189.513 35.9308 189.705 35.9308 189.817 35.8842ZM192.083 35.6042H192.279C193.782 35.6042 194.888 35.4875 195.597 35.2542C196.307 35.0115 196.703 34.6335 196.787 34.1202C196.815 33.8868 196.787 33.6628 196.703 33.4482C196.629 33.2242 196.503 33.0375 196.325 32.8882C196.157 32.7295 195.961 32.6362 195.737 32.6082C195.532 32.5708 195.317 32.6128 195.093 32.7342C194.879 32.8462 194.697 33.0095 194.547 33.2242C194.407 33.4388 194.337 33.6628 194.337 33.8962C194.328 34.3815 194.72 34.8155 195.513 35.1982C196.307 35.5808 197.137 35.7908 198.005 35.8282C198.873 35.8562 199.373 35.6695 199.503 35.2682C199.625 34.9415 199.475 34.5915 199.055 34.2182C198.635 33.8448 197.968 33.4668 197.053 33.0842C196.148 32.6922 194.925 32.2908 193.385 31.8802L194.029 30.2002C196.232 30.8908 197.847 31.5442 198.873 32.1602C199.909 32.7668 200.53 33.3595 200.735 33.9382C200.95 34.5075 200.936 35.1795 200.693 35.9542C200.413 36.8595 199.597 37.3355 198.243 37.3822C196.89 37.4288 195.635 37.1022 194.477 36.4022C193.32 35.6928 192.83 34.8295 193.007 33.8122C193.11 33.2615 193.301 32.7575 193.581 32.3002C193.871 31.8335 194.216 31.4788 194.617 31.2362C195.019 30.9842 195.434 30.8768 195.863 30.9142C196.293 30.9608 196.685 31.1568 197.039 31.5022C197.403 31.8382 197.669 32.2628 197.837 32.7762C198.005 33.2802 198.052 33.7935 197.977 34.3162C197.856 35.0815 197.576 35.6928 197.137 36.1502C196.708 36.5982 196.101 36.9202 195.317 37.1162C194.533 37.3122 193.521 37.4102 192.279 37.4102H192.083V35.6042ZM35.2053 59.3682C34.8973 59.3682 34.6359 59.2608 34.4213 59.0462C34.2066 58.8315 34.0993 58.5608 34.0993 58.2342C34.0993 57.9262 34.2066 57.6695 34.4213 57.4642C34.6359 57.2495 34.8973 57.1422 35.2053 57.1422C35.5226 57.1422 35.7886 57.2495 36.0033 57.4642C36.2179 57.6788 36.3253 57.9355 36.3253 58.2342C36.3253 58.5515 36.2179 58.8222 36.0033 59.0462C35.7886 59.2608 35.5226 59.3682 35.2053 59.3682ZM45.5257 59.4102C44.9004 59.4102 44.3777 59.2422 43.9577 58.9062C43.5377 58.5702 43.1644 58.0382 42.8377 57.3102L40.8497 52.7042L42.1517 52.0182L44.0697 56.5542C44.2377 56.9555 44.4244 57.2308 44.6297 57.3802C44.835 57.5295 45.1337 57.6042 45.5257 57.6042H45.6797L45.7777 58.5002L45.6797 59.4102H45.5257ZM40.9477 59.4802C40.257 59.4802 39.6644 59.3682 39.1697 59.1442C38.675 58.9202 38.2364 58.6728 37.8537 58.4022L38.5397 57.1142L38.5957 57.1422C38.885 57.3102 39.207 57.4548 39.5617 57.5762C39.9164 57.6975 40.327 57.7582 40.7937 57.7582C41.3724 57.7582 41.853 57.6695 42.2357 57.4922C42.6184 57.3148 42.9357 57.1142 43.1877 56.8902L43.2157 56.8622L44.0137 57.9542L43.9857 57.9962C43.7804 58.2295 43.561 58.4488 43.3277 58.6542C43.1037 58.8595 42.7864 59.0508 42.3757 59.2282C41.965 59.3962 41.489 59.4802 40.9477 59.4802ZM53.3665 57.6042H53.3945C53.6931 57.6042 53.9218 57.5202 54.0805 57.3522C54.2485 57.1748 54.3325 56.9415 54.3325 56.6522C54.3325 56.3722 54.2438 55.9708 54.0665 55.4482C53.8985 54.9162 53.7351 54.4728 53.5765 54.1182L54.8645 53.4042C55.0418 53.7868 55.2285 54.3095 55.4245 54.9722C55.6205 55.6255 55.7185 56.1995 55.7185 56.6942C55.7185 57.1982 55.6158 57.6602 55.4105 58.0802C55.2145 58.4908 54.9391 58.8175 54.5845 59.0602C54.2391 59.2935 53.8425 59.4102 53.3945 59.4102H53.3665V57.6042ZM49.5865 57.6042H49.6425C49.9038 57.6042 50.1278 57.5342 50.3145 57.3942C50.5105 57.2448 50.6831 57.0348 50.8325 56.7642C50.9538 56.5402 51.0518 56.2742 51.1265 55.9662C51.2011 55.6582 51.2618 55.3688 51.3085 55.0982C51.3085 55.0888 51.3085 55.0842 51.3085 55.0842C51.3085 55.0842 51.3085 55.0795 51.3085 55.0702L52.6245 55.1262L52.6105 55.2522C52.5731 55.4295 52.5358 55.6395 52.4985 55.8822C52.4705 56.1155 52.4565 56.3162 52.4565 56.4842C52.4565 56.8482 52.5311 57.1282 52.6805 57.3242C52.8298 57.5108 53.0631 57.6042 53.3805 57.6042H53.4225L53.5205 58.5002L53.4225 59.4102H53.3805C52.8671 59.4102 52.4425 59.2655 52.1065 58.9762C51.7705 58.6868 51.5418 58.2808 51.4205 57.7582L51.7425 57.7442C51.5838 58.0802 51.3971 58.3742 51.1825 58.6262C50.9678 58.8688 50.7298 59.0602 50.4685 59.2002C50.2071 59.3402 49.9271 59.4102 49.6285 59.4102H49.5865V57.6042ZM45.5825 59.4102L45.4845 58.5002L45.5825 57.6042H45.6525C45.9605 57.6042 46.2591 57.5388 46.5485 57.4082C46.8378 57.2682 47.0571 57.0908 47.2065 56.8762C47.3931 56.6522 47.5378 56.4002 47.6405 56.1202C47.7525 55.8308 47.8458 55.5368 47.9205 55.2382C47.9298 55.2102 47.9345 55.1868 47.9345 55.1682L49.2505 55.3082C49.2411 55.3455 49.2318 55.3922 49.2225 55.4482C49.1665 55.6535 49.1105 55.8775 49.0545 56.1202C49.0078 56.3535 48.9798 56.5588 48.9705 56.7362C48.9611 57.0255 49.0078 57.2448 49.1105 57.3942C49.2131 57.5342 49.3811 57.6042 49.6145 57.6042H49.6565L49.7545 58.5002L49.6565 59.4102H49.5865C49.1758 59.4102 48.8211 59.2982 48.5225 59.0742C48.2331 58.8408 48.0418 58.5328 47.9485 58.1502C47.6498 58.5608 47.3045 58.8735 46.9125 59.0882C46.5205 59.3028 46.0958 59.4102 45.6385 59.4102H45.5825ZM49.9365 51.3462C50.3845 51.3462 50.7158 51.3462 50.9305 51.3462C51.1451 51.3462 51.4718 51.3462 51.9105 51.3462C51.9105 51.4955 51.9105 51.6168 51.9105 51.7102C51.9198 51.8035 51.9245 51.9202 51.9245 52.0602C51.9338 52.3122 51.9431 52.5688 51.9525 52.8302C51.4951 52.8302 51.1545 52.8302 50.9305 52.8302C50.7158 52.8302 50.3845 52.8302 49.9365 52.8302C49.9365 52.4942 49.9365 52.2468 49.9365 52.0882C49.9365 51.9202 49.9365 51.6728 49.9365 51.3462ZM51.8545 51.3462C52.0971 51.3462 52.2791 51.3462 52.4005 51.3462C52.5218 51.3462 52.7038 51.3462 52.9465 51.3462C53.2545 51.3462 53.5625 51.3462 53.8705 51.3462C53.8705 51.6822 53.8705 51.9342 53.8705 52.1022C53.8705 52.2608 53.8705 52.5035 53.8705 52.8302C53.4131 52.8302 53.0725 52.8302 52.8485 52.8302C52.6338 52.8302 52.3118 52.8302 51.8825 52.8302C51.8825 52.6622 51.8778 52.5408 51.8685 52.4662C51.8685 52.3915 51.8685 52.2748 51.8685 52.1162C51.8685 51.9575 51.8685 51.8268 51.8685 51.7242C51.8685 51.6215 51.8638 51.4955 51.8545 51.3462ZM51.1825 49.5822C51.5091 49.5822 51.7518 49.5822 51.9105 49.5822C52.0691 49.5822 52.3118 49.5822 52.6385 49.5822C52.6385 49.9182 52.6385 50.1655 52.6385 50.3242C52.6385 50.4828 52.6385 50.7255 52.6385 51.0522C52.3865 51.0522 52.1951 51.0522 52.0645 51.0522C51.9431 51.0522 51.7611 51.0522 51.5185 51.0522C51.3971 51.0522 51.2851 51.0522 51.1825 51.0522C51.1825 50.8748 51.1825 50.7442 51.1825 50.6602C51.1825 50.5668 51.1825 50.4315 51.1825 50.2542C51.1825 50.1048 51.1825 49.9928 51.1825 49.9182C51.1825 49.8435 51.1825 49.7315 51.1825 49.5822ZM67.9612 59.4102C67.3359 59.4102 66.8132 59.2422 66.3932 58.9062C65.9732 58.5702 65.5999 58.0382 65.2732 57.3102L63.2852 52.7042L64.5872 52.0182L66.5052 56.5542C66.6732 56.9555 66.8599 57.2308 67.0652 57.3802C67.2706 57.5295 67.5692 57.6042 67.9612 57.6042H68.1152L68.2132 58.5002L68.1152 59.4102H67.9612ZM63.3832 59.4802C62.6926 59.4802 62.0999 59.3682 61.6052 59.1442C61.1106 58.9202 60.6719 58.6728 60.2892 58.4022L60.9752 57.1142L61.0312 57.1422C61.3206 57.3102 61.6426 57.4548 61.9972 57.5762C62.3519 57.6975 62.7626 57.7582 63.2292 57.7582C63.8079 57.7582 64.2886 57.6695 64.6712 57.4922C65.0539 57.3148 65.3712 57.1142 65.6232 56.8902L65.6512 56.8622L66.4492 57.9542L66.4212 57.9962C66.2159 58.2295 65.9966 58.4488 65.7632 58.6542C65.5392 58.8595 65.2219 59.0508 64.8112 59.2282C64.4006 59.3962 63.9246 59.4802 63.3832 59.4802ZM67.99 57.6042H68.102C68.8207 57.6042 69.3807 57.5715 69.782 57.5062C70.1833 57.4408 70.4727 57.3428 70.65 57.2122C70.8273 57.0722 70.944 56.8855 71 56.6522C71.0373 56.4468 71.0467 56.2042 71.028 55.9242C71.0093 55.6348 70.9673 55.2988 70.902 54.9162L70.888 54.8182L72.204 54.5802C72.316 55.2335 72.3767 55.9942 72.386 56.8622C72.4513 57.0955 72.5773 57.2775 72.764 57.4082C72.9507 57.5388 73.198 57.6042 73.506 57.6042H73.59L73.688 58.5002L73.59 59.4102H73.506C73.058 59.4102 72.6567 59.2888 72.302 59.0462C71.9473 58.7942 71.672 58.4722 71.476 58.0802L71.812 58.1502C71.6533 58.4582 71.4293 58.7055 71.14 58.8922C70.8507 59.0695 70.4633 59.2002 69.978 59.2842C69.4927 59.3682 68.8673 59.4102 68.102 59.4102H67.99V57.6042ZM71.042 62.4762C70.6407 62.4762 70.342 62.4762 70.146 62.4762C69.9593 62.4762 69.6747 62.4762 69.292 62.4762C69.2827 62.1402 69.2733 61.8882 69.264 61.7202C69.2547 61.5615 69.25 61.3188 69.25 60.9922C69.6513 60.9922 69.95 60.9922 70.146 60.9922C70.3513 60.9922 70.65 60.9922 71.042 60.9922C71.042 61.3282 71.042 61.5802 71.042 61.7482C71.042 61.9162 71.042 62.1588 71.042 62.4762ZM69.348 62.4762C68.9467 62.4762 68.648 62.4762 68.452 62.4762C68.256 62.4762 67.962 62.4762 67.57 62.4762C67.57 62.1402 67.57 61.8882 67.57 61.7202C67.57 61.5615 67.57 61.3188 67.57 60.9922C67.962 60.9922 68.2513 60.9922 68.438 60.9922C68.634 60.9922 68.928 60.9922 69.32 60.9922C69.32 61.3282 69.3247 61.5802 69.334 61.7482C69.3433 61.9162 69.348 62.1588 69.348 62.4762ZM73.4731 57.6042H73.6691C75.1717 57.6042 76.2777 57.4875 76.9871 57.2542C77.6964 57.0115 78.0931 56.6335 78.1771 56.1202C78.2051 55.8868 78.1771 55.6628 78.0931 55.4482C78.0184 55.2242 77.8924 55.0375 77.7151 54.8882C77.5471 54.7295 77.3511 54.6362 77.1271 54.6082C76.9217 54.5708 76.7071 54.6128 76.4831 54.7342C76.2684 54.8462 76.0864 55.0095 75.9371 55.2242C75.7971 55.4388 75.7271 55.6628 75.7271 55.8962C75.7177 56.3815 76.1097 56.8155 76.9031 57.1982C77.6964 57.5808 78.5271 57.7908 79.3951 57.8282C80.2631 57.8562 80.7624 57.6695 80.8931 57.2682C81.0144 56.9415 80.8651 56.5915 80.4451 56.2182C80.0251 55.8448 79.3577 55.4668 78.4431 55.0842C77.5377 54.6922 76.3151 54.2908 74.7751 53.8802L75.4191 52.2002C77.6217 52.8908 79.2364 53.5442 80.2631 54.1602C81.2991 54.7668 81.9197 55.3595 82.1251 55.9382C82.3397 56.5075 82.3257 57.1795 82.0831 57.9542C81.8031 58.8595 80.9864 59.3355 79.6331 59.3822C78.2797 59.4288 77.0244 59.1022 75.8671 58.4022C74.7097 57.6928 74.2197 56.8295 74.3971 55.8122C74.4997 55.2615 74.6911 54.7575 74.9711 54.3002C75.2604 53.8335 75.6057 53.4788 76.0071 53.2362C76.4084 52.9842 76.8237 52.8768 77.2531 52.9142C77.6824 52.9608 78.0744 53.1568 78.4291 53.5022C78.7931 53.8382 79.0591 54.2628 79.2271 54.7762C79.3951 55.2802 79.4417 55.7935 79.3671 56.3162C79.2457 57.0815 78.9657 57.6928 78.5271 58.1502C78.0977 58.5982 77.4911 58.9202 76.7071 59.1162C75.9231 59.3122 74.9104 59.4102 73.6691 59.4102H73.4731V57.6042ZM83.7369 59.3262C83.8303 58.6915 83.8723 57.7022 83.8629 56.3582C83.8536 55.0142 83.8163 53.6748 83.7509 52.3402C83.6856 51.0055 83.6109 50.0908 83.5269 49.5962L85.0669 49.2462C85.1416 49.7595 85.2116 50.6975 85.2769 52.0602C85.3423 53.4228 85.3749 54.8135 85.3749 56.2322C85.3749 57.6415 85.3236 58.7288 85.2209 59.4942L83.7369 59.3262ZM86.6369 61.8882C87.6822 61.6642 88.5316 61.4028 89.1849 61.1042C89.8476 60.8148 90.3376 60.4695 90.6549 60.0682C90.9722 59.6762 91.1309 59.2142 91.1309 58.6822C91.1309 58.1502 91.0609 57.6275 90.9209 57.1142C90.7902 56.5915 90.5942 56.1575 90.3329 55.8122C90.0809 55.4575 89.7916 55.2568 89.4649 55.2102C89.2036 55.1728 88.9609 55.2708 88.7369 55.5042C88.5222 55.7282 88.3729 55.9988 88.2889 56.3162C88.2049 56.6335 88.2236 56.8855 88.3449 57.0722C88.5222 57.3148 88.9282 57.4688 89.5629 57.5342C90.2069 57.5902 91.1029 57.6135 92.2509 57.6042H92.9229L93.0209 58.5002L92.9229 59.4102C92.5776 59.4102 92.2836 59.4148 92.0409 59.4242C91.1076 59.4335 90.3516 59.4195 89.7729 59.3822C89.2036 59.3448 88.6809 59.2282 88.2049 59.0322C87.7382 58.8362 87.4022 58.5235 87.1969 58.0942C86.9356 57.5528 86.8796 56.9228 87.0289 56.2042C87.1782 55.4762 87.4816 54.8508 87.9389 54.3282C88.3962 53.8055 88.9096 53.5442 89.4789 53.5442C90.0482 53.5442 90.5522 53.7868 90.9909 54.2722C91.4389 54.7575 91.7842 55.3828 92.0269 56.1482C92.2789 56.9135 92.4049 57.6975 92.4049 58.5002C92.4049 59.3402 92.1949 60.0962 91.7749 60.7682C91.3642 61.4495 90.7669 62.0188 89.9829 62.4762C89.1989 62.9335 88.2656 63.2648 87.1829 63.4702L86.6369 61.8882ZM92.7221 57.6042H93.8421C94.6074 57.6042 95.3261 57.5482 95.9981 57.4362C96.6794 57.3148 97.3514 57.1375 98.0141 56.9042C98.6768 56.6708 99.3674 56.3628 100.086 55.9802L100.128 55.9662C100.772 55.6115 101.318 55.3688 101.766 55.2382L101.822 56.3722C101.318 56.3348 100.833 56.2462 100.366 56.1062C99.8994 55.9662 99.3768 55.7515 98.7981 55.4622C98.3968 55.2475 98.0141 55.0842 97.6501 54.9722C97.2861 54.8602 96.9454 54.8042 96.6281 54.8042C96.2641 54.7948 95.9328 54.8975 95.6341 55.1122C95.3448 55.3175 95.1208 55.5555 94.9621 55.8262L93.9401 55.0842C94.2668 54.4215 94.6588 53.9175 95.1161 53.5722C95.5828 53.2268 96.1054 53.0588 96.6841 53.0682C97.0761 53.0775 97.4448 53.1475 97.7901 53.2782C98.1448 53.3995 98.6628 53.6328 99.3441 53.9782L99.3581 53.9922L99.5401 54.0762C100.035 54.3375 100.459 54.5382 100.814 54.6782C101.178 54.8182 101.579 54.9302 102.018 55.0142L102.074 56.6242C101.859 56.6895 101.491 56.8622 100.968 57.1422C100.847 57.2075 100.66 57.3055 100.408 57.4362C99.5121 57.9028 98.7281 58.2762 98.0561 58.5562C97.3841 58.8268 96.6888 59.0368 95.9701 59.1862C95.2514 59.3355 94.4488 59.4102 93.5621 59.4102H92.7221V57.6042ZM95.9141 49.9882C96.2874 49.9882 96.5674 49.9882 96.7541 49.9882C96.9408 49.9882 97.2208 49.9882 97.5941 49.9882C97.5941 50.3708 97.5941 50.6555 97.5941 50.8422C97.5941 51.0288 97.5941 51.3088 97.5941 51.6822C97.2114 51.6822 96.9268 51.6822 96.7401 51.6822C96.5534 51.6822 96.2781 51.6822 95.9141 51.6822C95.9141 51.2995 95.9141 51.0148 95.9141 50.8282C95.9141 50.6415 95.9141 50.3615 95.9141 49.9882ZM106.218 61.9442C106.825 61.7015 107.38 61.4122 107.884 61.0762C108.388 60.7495 108.785 60.4135 109.074 60.0682C109.364 59.7228 109.508 59.4148 109.508 59.1442C109.508 58.9108 109.429 58.4675 109.27 57.8142C109.121 57.1608 108.944 56.4608 108.738 55.7142L110.138 55.1682C110.353 55.8215 110.526 56.5168 110.656 57.2542C110.796 57.9822 110.866 58.6122 110.866 59.1442C110.866 59.7322 110.698 60.3015 110.362 60.8522C110.036 61.4028 109.574 61.9022 108.976 62.3502C108.388 62.7982 107.712 63.1715 106.946 63.4702L106.218 61.9442ZM115.305 59.4102C114.615 59.4102 114.064 59.2842 113.653 59.0322C113.243 58.7708 112.949 58.3882 112.771 57.8842C112.594 57.3708 112.51 56.7175 112.519 55.9242C112.51 54.8508 112.477 53.7028 112.421 52.4802C112.365 51.2482 112.286 50.2868 112.183 49.5962L113.709 49.2462C113.803 49.9275 113.877 50.9495 113.933 52.3122C113.989 53.6655 114.013 54.7995 114.003 55.7142C113.985 56.2368 114.003 56.6242 114.059 56.8762C114.125 57.1282 114.246 57.3148 114.423 57.4362C114.61 57.5482 114.904 57.6042 115.305 57.6042H115.375L115.473 58.5002L115.375 59.4102H115.305ZM115.117 57.6042H115.551C116.391 57.6042 117.077 57.5342 117.609 57.3942C118.141 57.2542 118.491 57.0582 118.659 56.8062C118.65 56.4888 118.542 56.1388 118.337 55.7562C118.132 55.3642 117.805 54.9302 117.357 54.4542C116.918 53.9688 116.377 53.4602 115.733 52.9282L115.901 51.3322L121.067 49.1202L121.571 50.5762L117.413 52.3682L117.497 52.4522C117.936 52.8348 118.37 53.2922 118.799 53.8242C119.238 54.3562 119.588 54.9348 119.849 55.5602C120.11 56.1855 120.157 56.7688 119.989 57.3102C119.793 58.0102 119.303 58.5375 118.519 58.8922C117.744 59.2375 116.755 59.4102 115.551 59.4102H115.117V57.6042ZM129.675 58.4302C128.863 58.7008 128.093 58.7895 127.365 58.6962C126.637 58.5935 126.073 58.3275 125.671 57.8982C125.27 57.4595 125.111 56.9042 125.195 56.2322C125.298 55.5042 125.671 54.8882 126.315 54.3842C126.969 53.8708 127.813 53.4275 128.849 53.0542L129.171 54.6782C128.518 54.8368 127.925 55.0702 127.393 55.3782C126.861 55.6768 126.581 55.9615 126.553 56.2322C126.535 56.4468 126.647 56.6335 126.889 56.7922C127.132 56.9415 127.468 57.0162 127.897 57.0162C128.336 57.0162 128.812 56.9182 129.325 56.7222L129.675 58.4302ZM131.537 59.4102C130.996 59.4102 130.543 59.3028 130.179 59.0882C129.825 58.8735 129.535 58.5328 129.311 58.0662C129.097 57.5902 128.943 56.9602 128.849 56.1762L128.695 54.8462C128.63 54.3888 128.574 53.9782 128.527 53.6142C128.49 53.2502 128.439 52.8302 128.373 52.3542L129.843 52.0602C129.89 52.5455 129.941 53.0355 129.997 53.5302C130.147 54.8835 130.235 55.6862 130.263 55.9382C130.319 56.4142 130.389 56.7688 130.473 57.0022C130.557 57.2262 130.679 57.3848 130.837 57.4782C130.996 57.5622 131.229 57.6042 131.537 57.6042H131.775L131.873 58.5002L131.775 59.4102H131.537ZM131.619 57.6042H132.347C133.047 57.6042 133.551 57.5202 133.859 57.3522C134.176 57.1842 134.33 56.9275 134.321 56.5822C134.321 56.3582 134.223 55.9615 134.027 55.3922C133.84 54.8135 133.686 54.3842 133.565 54.1042L134.895 53.3902C135.072 53.7822 135.254 54.3095 135.441 54.9722C135.628 55.6348 135.721 56.2042 135.721 56.6802C135.721 57.5762 135.427 58.2575 134.839 58.7242C134.26 59.1815 133.43 59.4102 132.347 59.4102H131.619V57.6042ZM131.857 60.9362C132.23 60.9362 132.51 60.9362 132.697 60.9362C132.884 60.9362 133.164 60.9362 133.537 60.9362C133.537 61.3188 133.537 61.6035 133.537 61.7902C133.537 61.9768 133.537 62.2568 133.537 62.6302C133.154 62.6302 132.87 62.6302 132.683 62.6302C132.496 62.6302 132.221 62.6302 131.857 62.6302C131.857 62.2475 131.857 61.9628 131.857 61.7762C131.857 61.5895 131.857 61.3095 131.857 60.9362ZM144.607 63.0082C143.832 63.0082 143.128 62.8448 142.493 62.5182C141.868 62.1915 141.378 61.7248 141.023 61.1182C140.678 60.5208 140.538 59.8255 140.603 59.0322C140.64 58.5282 140.748 57.9915 140.925 57.4222C141.102 56.8435 141.308 56.3115 141.541 55.8262L142.759 56.4002L142.717 56.4982C142.493 56.9835 142.32 57.4268 142.199 57.8282C142.087 58.2202 142.022 58.6168 142.003 59.0182C141.994 59.4475 142.096 59.8255 142.311 60.1522C142.526 60.4882 142.829 60.7448 143.221 60.9222C143.613 61.1088 144.075 61.2022 144.607 61.2022C145.596 61.2022 146.334 60.9455 146.819 60.4322C147.314 59.9282 147.542 59.1535 147.505 58.1082C147.44 56.2788 147.37 54.7668 147.295 53.5722C147.239 52.7508 147.183 51.9855 147.127 51.2762C147.071 50.5668 147.015 50.0068 146.959 49.5962L148.485 49.2462C148.578 49.9648 148.662 51.3415 148.737 53.3762C148.784 54.3375 148.816 55.1262 148.835 55.7422C148.854 56.3582 148.877 57.1235 148.905 58.0382C148.933 59.0648 148.779 59.9515 148.443 60.6982C148.116 61.4542 147.626 62.0282 146.973 62.4202C146.32 62.8122 145.531 63.0082 144.607 63.0082ZM149.924 61.8882C150.969 61.6642 151.819 61.4028 152.472 61.1042C153.135 60.8148 153.625 60.4695 153.942 60.0682C154.259 59.6762 154.418 59.2142 154.418 58.6822C154.418 58.1502 154.348 57.6275 154.208 57.1142C154.077 56.5915 153.881 56.1575 153.62 55.8122C153.368 55.4575 153.079 55.2568 152.752 55.2102C152.491 55.1728 152.248 55.2708 152.024 55.5042C151.809 55.7282 151.66 55.9988 151.576 56.3162C151.492 56.6335 151.511 56.8855 151.632 57.0722C151.809 57.3148 152.215 57.4688 152.85 57.5342C153.494 57.5902 154.39 57.6135 155.538 57.6042H156.21L156.308 58.5002L156.21 59.4102C155.865 59.4102 155.571 59.4148 155.328 59.4242C154.395 59.4335 153.639 59.4195 153.06 59.3822C152.491 59.3448 151.968 59.2282 151.492 59.0322C151.025 58.8362 150.689 58.5235 150.484 58.0942C150.223 57.5528 150.167 56.9228 150.316 56.2042C150.465 55.4762 150.769 54.8508 151.226 54.3282C151.683 53.8055 152.197 53.5442 152.766 53.5442C153.335 53.5442 153.839 53.7868 154.278 54.2722C154.726 54.7575 155.071 55.3828 155.314 56.1482C155.566 56.9135 155.692 57.6975 155.692 58.5002C155.692 59.3402 155.482 60.0962 155.062 60.7682C154.651 61.4495 154.054 62.0188 153.27 62.4762C152.486 62.9335 151.553 63.2648 150.47 63.4702L149.924 61.8882ZM156.023 57.6042H156.373C157.577 57.6042 158.581 57.4595 159.383 57.1702C160.186 56.8715 160.788 56.5355 161.189 56.1622C161.591 55.7795 161.852 55.4295 161.973 55.1122C161.861 54.8882 161.586 54.7295 161.147 54.6362C160.718 54.5428 160.247 54.5335 159.733 54.6082C159.22 54.6828 158.791 54.8462 158.445 55.0982C158.977 55.7048 159.491 56.1902 159.985 56.5542C160.48 56.9088 161.017 57.1748 161.595 57.3522C162.183 57.5202 162.855 57.6042 163.611 57.6042H164.017L164.115 58.5002L164.017 59.4102H163.611C162.603 59.4102 161.735 59.2842 161.007 59.0322C160.289 58.7802 159.607 58.3742 158.963 57.8142C158.319 57.2542 157.591 56.4608 156.779 55.4342L156.835 54.2442C157.423 53.6562 158.203 53.2782 159.173 53.1102C160.144 52.9422 161.04 52.9935 161.861 53.2642C162.683 53.5348 163.177 53.9688 163.345 54.5662C163.495 55.1635 163.252 55.8495 162.617 56.6242C161.992 57.3988 161.11 58.0568 159.971 58.5982C158.833 59.1395 157.633 59.4102 156.373 59.4102H156.023V57.6042ZM159.313 50.1562C159.687 50.1562 159.967 50.1562 160.153 50.1562C160.34 50.1562 160.62 50.1562 160.993 50.1562C160.993 50.5388 160.993 50.8235 160.993 51.0102C160.993 51.1968 160.993 51.4768 160.993 51.8502C160.611 51.8502 160.326 51.8502 160.139 51.8502C159.953 51.8502 159.677 51.8502 159.313 51.8502C159.313 51.4675 159.313 51.1828 159.313 50.9962C159.313 50.8095 159.313 50.5295 159.313 50.1562ZM175.309 59.4102C174.768 59.4102 174.292 59.2468 173.881 58.9202C173.47 58.5842 173.162 58.1035 172.957 57.4782C172.873 57.2262 172.705 56.4375 172.453 55.1122L173.755 54.7622C173.876 55.4155 173.965 55.8915 174.021 56.1902C174.086 56.4795 174.152 56.7128 174.217 56.8902C174.292 57.1328 174.418 57.3148 174.595 57.4362C174.772 57.5482 175.01 57.6042 175.309 57.6042H175.393L175.491 58.5002L175.379 59.4102H175.309ZM171.669 57.6042H171.711C172.038 57.6042 172.332 57.5202 172.593 57.3522C172.854 57.1842 172.994 56.9882 173.013 56.7642L174.119 56.9042C174.082 57.3615 173.946 57.7815 173.713 58.1642C173.489 58.5468 173.2 58.8502 172.845 59.0742C172.49 59.2982 172.112 59.4102 171.711 59.4102H171.669V57.6042ZM167.903 57.6042H167.959C168.22 57.6042 168.444 57.5342 168.631 57.3942C168.827 57.2448 169 57.0348 169.149 56.7642C169.27 56.5402 169.368 56.2742 169.443 55.9662C169.518 55.6582 169.578 55.3688 169.625 55.0982C169.625 55.0888 169.625 55.0842 169.625 55.0842C169.625 55.0842 169.625 55.0795 169.625 55.0702L170.941 55.1262L170.927 55.2522C170.89 55.4295 170.852 55.6395 170.815 55.8822C170.787 56.1155 170.773 56.3162 170.773 56.4842C170.773 56.8482 170.848 57.1282 170.997 57.3242C171.146 57.5108 171.38 57.6042 171.697 57.6042H171.739L171.837 58.5002L171.739 59.4102H171.697C171.184 59.4102 170.759 59.2655 170.423 58.9762C170.087 58.6868 169.858 58.2808 169.737 57.7582L170.059 57.7442C169.9 58.0802 169.714 58.3742 169.499 58.6262C169.284 58.8688 169.046 59.0602 168.785 59.2002C168.524 59.3402 168.244 59.4102 167.945 59.4102H167.903V57.6042ZM163.899 59.4102L163.801 58.5002L163.899 57.6042H163.969C164.277 57.6042 164.576 57.5388 164.865 57.4082C165.154 57.2682 165.374 57.0908 165.523 56.8762C165.71 56.6522 165.854 56.4002 165.957 56.1202C166.069 55.8308 166.162 55.5368 166.237 55.2382C166.246 55.2102 166.251 55.1868 166.251 55.1682L167.567 55.3082C167.558 55.3455 167.548 55.3922 167.539 55.4482C167.483 55.6535 167.427 55.8775 167.371 56.1202C167.324 56.3535 167.296 56.5588 167.287 56.7362C167.278 57.0255 167.324 57.2448 167.427 57.3942C167.53 57.5342 167.698 57.6042 167.931 57.6042H167.973L168.071 58.5002L167.973 59.4102H167.903C167.492 59.4102 167.138 59.2982 166.839 59.0742C166.55 58.8408 166.358 58.5328 166.265 58.1502C165.966 58.5608 165.621 58.8735 165.229 59.0882C164.837 59.3028 164.412 59.4102 163.955 59.4102H163.899ZM168.449 51.9062C168.897 51.9062 169.228 51.9062 169.443 51.9062C169.658 51.9062 169.984 51.9062 170.423 51.9062C170.423 52.0555 170.423 52.1768 170.423 52.2702C170.432 52.3635 170.437 52.4802 170.437 52.6202C170.446 52.8722 170.456 53.1288 170.465 53.3902C170.008 53.3902 169.667 53.3902 169.443 53.3902C169.228 53.3902 168.897 53.3902 168.449 53.3902C168.449 53.0542 168.449 52.8068 168.449 52.6482C168.449 52.4802 168.449 52.2328 168.449 51.9062ZM170.367 51.9062C170.61 51.9062 170.792 51.9062 170.913 51.9062C171.034 51.9062 171.216 51.9062 171.459 51.9062C171.767 51.9062 172.075 51.9062 172.383 51.9062C172.383 52.2422 172.383 52.4942 172.383 52.6622C172.383 52.8208 172.383 53.0635 172.383 53.3902C171.926 53.3902 171.585 53.3902 171.361 53.3902C171.146 53.3902 170.824 53.3902 170.395 53.3902C170.395 53.2222 170.39 53.1008 170.381 53.0262C170.381 52.9515 170.381 52.8348 170.381 52.6762C170.381 52.5175 170.381 52.3868 170.381 52.2842C170.381 52.1815 170.376 52.0555 170.367 51.9062ZM169.695 50.1422C170.022 50.1422 170.264 50.1422 170.423 50.1422C170.582 50.1422 170.824 50.1422 171.151 50.1422C171.151 50.4782 171.151 50.7255 171.151 50.8842C171.151 51.0428 171.151 51.2855 171.151 51.6122C170.899 51.6122 170.708 51.6122 170.577 51.6122C170.456 51.6122 170.274 51.6122 170.031 51.6122C169.91 51.6122 169.798 51.6122 169.695 51.6122C169.695 51.4348 169.695 51.3042 169.695 51.2202C169.695 51.1268 169.695 50.9915 169.695 50.8142C169.695 50.6648 169.695 50.5528 169.695 50.4782C169.695 50.4035 169.695 50.2915 169.695 50.1422ZM175.247 57.6042H175.513C175.867 57.6042 176.199 57.4968 176.507 57.2822C176.824 57.0582 177.099 56.7268 177.333 56.2882L177.501 55.9662C177.753 55.4995 178.005 55.1028 178.257 54.7762C178.509 54.4402 178.775 54.1788 179.055 53.9922C179.344 53.7962 179.647 53.6888 179.965 53.6702C180.795 53.6235 181.444 53.9828 181.911 54.7482C182.387 55.5135 182.573 56.3675 182.471 57.3102C182.377 58.2528 181.995 58.9202 181.323 59.3122C180.557 59.7508 179.223 59.3308 177.319 58.0522L178.019 56.5402C178.7 57.0162 179.302 57.3662 179.825 57.5902C180.347 57.8142 180.688 57.8748 180.847 57.7722C181.08 57.6322 181.201 57.3568 181.211 56.9462C181.22 56.5355 181.117 56.1575 180.903 55.8122C180.688 55.4668 180.408 55.2942 180.063 55.2942C179.82 55.2942 179.563 55.4482 179.293 55.7562C179.022 56.0548 178.728 56.5308 178.411 57.1842L178.215 57.5902C177.944 58.1968 177.571 58.6542 177.095 58.9622C176.619 59.2608 176.077 59.4102 175.471 59.4102H175.219L175.247 57.6042ZM191.659 62.7282C190.8 62.7282 190.035 62.5555 189.363 62.2102C188.691 61.8742 188.173 61.3748 187.809 60.7122C187.454 60.0588 187.305 59.2795 187.361 58.3742C187.389 57.8515 187.496 57.3008 187.683 56.7222C187.869 56.1435 188.079 55.6115 188.313 55.1262L189.531 55.6862L189.489 55.7842C189.265 56.2695 189.092 56.7222 188.971 57.1422C188.849 57.5528 188.779 57.9682 188.761 58.3882C188.751 58.9482 188.854 59.4148 189.069 59.7882C189.293 60.1615 189.619 60.4415 190.049 60.6282C190.487 60.8148 191.024 60.9082 191.659 60.9082C192.219 60.9082 192.732 60.8335 193.199 60.6842C193.665 60.5348 194.053 60.3388 194.361 60.0962C194.678 59.8535 194.907 59.5922 195.047 59.3122C194.991 59.2842 194.897 59.2468 194.767 59.2002C194.645 59.1442 194.473 59.0835 194.249 59.0182C194.025 58.9435 193.749 58.8595 193.423 58.7662C192.891 58.6168 192.48 58.4582 192.191 58.2902C191.901 58.1128 191.691 57.8935 191.561 57.6322C191.439 57.3708 191.388 57.0302 191.407 56.6102C191.444 55.8915 191.659 55.2148 192.051 54.5802C192.443 53.9362 192.947 53.4275 193.563 53.0542C194.179 52.6808 194.818 52.4988 195.481 52.5082C195.733 52.5175 195.985 52.5595 196.237 52.6342C196.489 52.7088 196.671 52.7928 196.783 52.8862L196.265 54.4682C196.171 54.4308 196.045 54.3982 195.887 54.3702C195.728 54.3422 195.579 54.3282 195.439 54.3282C195.037 54.3095 194.645 54.3935 194.263 54.5802C193.889 54.7575 193.572 54.9955 193.311 55.2942C193.059 55.5928 192.9 55.9055 192.835 56.2322C192.797 56.3815 192.811 56.5075 192.877 56.6102C192.942 56.7035 193.087 56.8015 193.311 56.9042C193.544 57.0068 193.899 57.1188 194.375 57.2402C194.963 57.3895 195.406 57.5482 195.705 57.7162C196.013 57.8748 196.223 58.0475 196.335 58.2342C196.456 58.4115 196.517 58.6262 196.517 58.8782C196.535 59.5128 196.33 60.1288 195.901 60.7262C195.481 61.3235 194.897 61.8042 194.151 62.1682C193.404 62.5415 192.573 62.7282 191.659 62.7282ZM201.008 59.4662C200.215 59.4662 199.552 59.3542 199.02 59.1302C198.497 58.9062 198.077 58.6635 197.76 58.4022L198.446 57.1142L198.53 57.1562C198.857 57.3242 199.197 57.4642 199.552 57.5762C199.907 57.6882 200.336 57.7442 200.84 57.7442C201.335 57.7442 201.741 57.6835 202.058 57.5622C202.385 57.4408 202.604 57.3055 202.716 57.1562C202.763 56.9415 202.716 56.6662 202.576 56.3302C202.436 55.9942 202.137 55.5788 201.68 55.0842C201.232 54.5895 200.616 54.0668 199.832 53.5162L200.7 51.9482C201.568 52.5642 202.287 53.2315 202.856 53.9502C203.435 54.6595 203.822 55.3642 204.018 56.0642C204.223 56.7548 204.2 57.3848 203.948 57.9542C203.733 58.4395 203.355 58.8128 202.814 59.0742C202.273 59.3355 201.671 59.4662 201.008 59.4662ZM205.09 61.8882C206.135 61.6642 206.985 61.4028 207.638 61.1042C208.301 60.8148 208.791 60.4695 209.108 60.0682C209.425 59.6762 209.584 59.2142 209.584 58.6822C209.584 58.1408 209.514 57.6135 209.374 57.1002C209.234 56.5868 209.038 56.1575 208.786 55.8122C208.534 55.4575 208.245 55.2568 207.918 55.2102C207.657 55.1728 207.414 55.2708 207.19 55.5042C206.966 55.7282 206.812 56.0035 206.728 56.3302C206.653 56.6475 206.677 56.8948 206.798 57.0722C206.938 57.2588 207.176 57.4035 207.512 57.5062C207.857 57.6088 208.245 57.6648 208.674 57.6742C209.113 57.6835 209.537 57.6508 209.948 57.5762V59.2702C209.416 59.4102 208.856 59.4662 208.268 59.4382C207.68 59.4195 207.148 59.2982 206.672 59.0742C206.196 58.8502 205.855 58.5235 205.65 58.0942C205.389 57.5528 205.333 56.9228 205.482 56.2042C205.631 55.4762 205.935 54.8508 206.392 54.3282C206.849 53.8055 207.363 53.5442 207.932 53.5442C208.501 53.5442 209.005 53.7868 209.444 54.2722C209.892 54.7575 210.237 55.3828 210.48 56.1482C210.732 56.9135 210.858 57.6975 210.858 58.5002C210.858 59.3402 210.648 60.0962 210.228 60.7682C209.817 61.4495 209.22 62.0188 208.436 62.4762C207.652 62.9335 206.719 63.2648 205.636 63.4702L205.09 61.8882ZM211.423 61.9442C212.03 61.7015 212.585 61.4122 213.089 61.0762C213.593 60.7495 213.99 60.4135 214.279 60.0682C214.569 59.7228 214.713 59.4148 214.713 59.1442C214.713 58.9108 214.634 58.4675 214.475 57.8142C214.326 57.1608 214.149 56.4608 213.943 55.7142L215.343 55.1682C215.558 55.8215 215.731 56.5168 215.861 57.2542C216.001 57.9822 216.071 58.6122 216.071 59.1442C216.071 59.7322 215.903 60.3015 215.567 60.8522C215.241 61.4028 214.779 61.9022 214.181 62.3502C213.593 62.7982 212.917 63.1715 212.151 63.4702L211.423 61.9442ZM213.565 51.8222C213.939 51.8222 214.219 51.8222 214.405 51.8222C214.592 51.8222 214.872 51.8222 215.245 51.8222C215.245 52.2048 215.245 52.4895 215.245 52.6762C215.245 52.8628 215.245 53.1428 215.245 53.5162C214.863 53.5162 214.578 53.5162 214.391 53.5162C214.205 53.5162 213.929 53.5162 213.565 53.5162C213.565 53.1335 213.565 52.8488 213.565 52.6622C213.565 52.4755 213.565 52.1955 213.565 51.8222ZM225.433 58.4302C224.621 58.7008 223.851 58.7895 223.123 58.6962C222.395 58.5935 221.83 58.3275 221.429 57.8982C221.028 57.4595 220.869 56.9042 220.953 56.2322C221.056 55.5042 221.429 54.8882 222.073 54.3842C222.726 53.8708 223.571 53.4275 224.607 53.0542L224.929 54.6782C224.276 54.8368 223.683 55.0702 223.151 55.3782C222.619 55.6768 222.339 55.9615 222.311 56.2322C222.292 56.4468 222.404 56.6335 222.647 56.7922C222.89 56.9415 223.226 57.0162 223.655 57.0162C224.094 57.0162 224.57 56.9182 225.083 56.7222L225.433 58.4302ZM227.295 59.4102C226.754 59.4102 226.301 59.3028 225.937 59.0882C225.582 58.8735 225.293 58.5328 225.069 58.0662C224.854 57.5902 224.7 56.9602 224.607 56.1762L224.453 54.8462C224.388 54.3888 224.332 53.9782 224.285 53.6142C224.248 53.2502 224.196 52.8302 224.131 52.3542L225.601 52.0602C225.648 52.5455 225.699 53.0355 225.755 53.5302C225.904 54.8835 225.993 55.6862 226.021 55.9382C226.077 56.4142 226.147 56.7688 226.231 57.0022C226.315 57.2262 226.436 57.3848 226.595 57.4782C226.754 57.5622 226.987 57.6042 227.295 57.6042H227.533L227.631 58.5002L227.533 59.4102H227.295ZM227.377 57.6042H228.105C228.805 57.6042 229.309 57.5202 229.617 57.3522C229.934 57.1842 230.088 56.9275 230.079 56.5822C230.079 56.3582 229.981 55.9615 229.785 55.3922C229.598 54.8135 229.444 54.3842 229.323 54.1042L230.653 53.3902C230.83 53.7822 231.012 54.3095 231.199 54.9722C231.385 55.6348 231.479 56.2042 231.479 56.6802C231.479 57.5762 231.185 58.2575 230.597 58.7242C230.018 59.1815 229.187 59.4102 228.105 59.4102H227.377V57.6042ZM227.615 60.9362C227.988 60.9362 228.268 60.9362 228.455 60.9362C228.641 60.9362 228.921 60.9362 229.295 60.9362C229.295 61.3188 229.295 61.6035 229.295 61.7902C229.295 61.9768 229.295 62.2568 229.295 62.6302C228.912 62.6302 228.627 62.6302 228.441 62.6302C228.254 62.6302 227.979 62.6302 227.615 62.6302C227.615 62.2475 227.615 61.9628 227.615 61.7762C227.615 61.5895 227.615 61.3095 227.615 60.9362Z" fill="white"/>
</g>
<defs>
<clipPath id="clip0_12574_18108">
<rect width="256" height="103" fill="white"/>
</clipPath>
</defs>
</svg>
