<svg width="232" height="173" viewBox="0 0 232 173" fill="none" xmlns="http://www.w3.org/2000/svg">
<g clip-path="url(#clip0_12585_18678)">
<path d="M205.057 6H32.9429C21.9287 6 13 12.1598 13 19.7583V132.242C13 139.84 21.9287 146 32.9429 146H205.057C216.071 146 225 139.84 225 132.242V19.7583C225 12.1598 216.071 6 205.057 6Z" fill="#DE6262"/>
<path d="M1.16211 54.8926V101.981" stroke="#253858" stroke-width="1.6338" stroke-miterlimit="10"/>
<path d="M1.16211 125.683V107.484" stroke="#253858" stroke-width="1.6338" stroke-miterlimit="10"/>
<path d="M203.516 1.72314H35.523C20.4371 1.72314 8.20703 10.3104 8.20703 20.9028V131.861C8.20703 142.454 20.4371 151.041 35.523 151.041H41V171.332L78.2646 151.041H203.516C218.602 151.041 230.832 142.454 230.832 131.861V20.9028C230.832 10.3104 218.602 1.72314 203.516 1.72314Z" stroke="#253858" stroke-width="1.6338" stroke-miterlimit="10"/>
<path d="M218.928 120.718V124.637C218.928 126.695 218.647 128.377 218.077 129.692C217.506 131.007 216.543 132.125 215.168 133.04C213.793 133.963 212.249 134.575 210.538 134.877V131.742C211.753 131.129 212.446 130.313 212.614 129.284H210.538V120.718H218.928ZM207.722 120.718V124.637C207.722 126.695 207.441 128.377 206.871 129.692C206.3 131.007 205.337 132.125 203.971 133.04C202.605 133.963 201.062 134.575 199.322 134.877V131.742C200.538 131.129 201.23 130.313 201.399 129.284H199.322V120.718H207.713H207.722Z" fill="white"/>
<path d="M23.9609 24.8681V20.9485C23.9609 18.8907 24.2416 17.2085 24.8121 15.8938C25.3827 14.5791 26.3462 13.4604 27.7212 12.5458C29.0962 11.6231 30.6396 11.0106 32.3513 10.7085V13.8442C31.1353 14.4566 30.4431 15.2732 30.2748 16.3021H32.3513V24.8681H23.9609ZM35.1668 24.8681V20.9485C35.1668 18.8907 35.4474 17.2085 36.018 15.8938C36.5886 14.5791 37.552 13.4604 38.9177 12.5458C40.2834 11.6231 41.8267 11.0106 43.5666 10.7085V13.8442C42.3506 14.4566 41.6584 15.2732 41.49 16.3021H43.5666V24.8681H35.1762H35.1668Z" fill="white"/>
<path d="M55.3132 52.8305C54.8601 52.8305 54.4883 52.6794 54.1978 52.3773C53.9074 52.0753 53.7622 51.7035 53.7622 51.262C53.7622 50.8321 53.9074 50.472 54.1978 50.1815C54.4883 49.8794 54.8601 49.7284 55.3132 49.7284C55.743 49.7284 56.109 49.8794 56.4111 50.1815C56.7132 50.472 56.8642 50.8321 56.8642 51.262C56.8642 51.7035 56.7132 52.0753 56.4111 52.3773C56.109 52.6794 55.743 52.8305 55.3132 52.8305ZM55.5397 47.5326C55.1563 47.5558 54.8136 47.4745 54.5115 47.2886C54.2211 47.1027 54.0003 46.8471 53.8493 46.5218C53.6983 46.1849 53.6285 45.8073 53.6402 45.389C53.6634 44.7036 53.8958 43.9949 54.3372 43.2629C54.7787 42.531 55.348 41.9501 56.0451 41.5202L57.021 42.4787C56.4982 42.8737 56.109 43.2397 55.8534 43.5766C55.5978 43.9135 55.4061 44.2214 55.2783 44.5002L55.2609 44.5525L55.2783 44.5351C55.3248 44.5235 55.3655 44.5119 55.4003 44.5002C55.4468 44.4886 55.4991 44.4828 55.5572 44.4828C55.9638 44.4828 56.3123 44.628 56.6028 44.9185C56.8932 45.2089 57.0385 45.5749 57.0385 46.0164C57.0385 46.423 56.8874 46.7774 56.5854 47.0795C56.2833 47.3815 55.9347 47.5326 55.5397 47.5326ZM68.0101 52.7607C67.2317 52.7607 66.5753 52.54 66.0408 52.0985C65.5064 51.657 65.0359 50.9599 64.6292 50.0072L62.1372 44.2911L63.9322 43.3152L66.3197 48.9616C66.5056 49.4263 66.7205 49.7458 66.9645 49.9201C67.2085 50.0828 67.557 50.1641 68.0101 50.1641H68.2367L68.3761 51.4711L68.2367 52.7607H68.0101ZM62.3986 52.8479C61.4923 52.8479 60.7197 52.7027 60.0807 52.4122C59.4417 52.1217 58.8841 51.8022 58.4077 51.4537L59.3488 49.6238L59.4185 49.6587C59.7554 49.8446 60.1446 50.0131 60.5861 50.1641C61.0392 50.3151 61.5562 50.3906 62.1372 50.3906C62.8691 50.3906 63.4674 50.2803 63.9322 50.0595C64.4085 49.8388 64.7687 49.6064 65.0126 49.3624L65.0475 49.3276L66.2151 50.8437L66.1628 50.9135C65.9537 51.1807 65.7039 51.4537 65.4135 51.7325C65.1346 52.0114 64.7338 52.267 64.211 52.4993C63.6998 52.7317 63.0956 52.8479 62.3986 52.8479ZM68.08 50.1641H68.1845C69.0908 50.1641 69.7936 50.1292 70.2932 50.0595C70.7928 49.9782 71.1472 49.8504 71.3563 49.6761C71.5654 49.5019 71.6932 49.2695 71.7397 48.979C71.7745 48.7234 71.7745 48.433 71.7397 48.1077C71.7165 47.7707 71.67 47.3932 71.6003 46.9749L71.5828 46.8878L73.3953 46.5392C73.5579 47.4106 73.6393 48.3633 73.6393 49.3973C73.709 49.6297 73.8542 49.8155 74.0749 49.955C74.2957 50.0944 74.5861 50.1641 74.9463 50.1641H75.0334L75.1728 51.4711L75.0334 52.7607H74.9289C74.3944 52.7607 73.9007 52.6155 73.4476 52.3251C72.9944 52.023 72.6401 51.6396 72.3845 51.1749L72.8202 51.2794C72.611 51.628 72.3206 51.9126 71.9488 52.1334C71.577 52.3541 71.0891 52.5168 70.4849 52.6213C69.8808 52.7143 69.114 52.7607 68.1845 52.7607H68.08V50.1641ZM71.792 56.6993C71.2924 56.6993 70.9206 56.6993 70.6766 56.6993C70.4326 56.6993 70.0609 56.6993 69.5613 56.6993C69.5613 56.2462 69.5555 55.9035 69.5439 55.6711C69.5439 55.4503 69.5439 55.125 69.5439 54.6952C70.0551 54.6952 70.4326 54.6952 70.6766 54.6952C70.9206 54.6952 71.2924 54.6952 71.792 54.6952C71.792 55.1483 71.792 55.4852 71.792 55.7059C71.792 55.9267 71.792 56.2578 71.792 56.6993ZM69.631 56.6993C69.1198 56.6993 68.7422 56.6993 68.4982 56.6993C68.2542 56.6993 67.8825 56.6993 67.3829 56.6993C67.3829 56.2462 67.3829 55.9035 67.3829 55.6711C67.3829 55.4503 67.3829 55.125 67.3829 54.6952C67.8941 54.6952 68.2659 54.6952 68.4982 54.6952C68.7422 54.6952 69.1082 54.6952 69.5961 54.6952C69.5961 55.1483 69.6019 55.4852 69.6136 55.7059C69.6252 55.9267 69.631 56.2578 69.631 56.6993ZM74.853 50.1641H74.9576C75.8406 50.1641 76.4796 50.0711 76.8746 49.8853C77.2696 49.6994 77.502 49.3973 77.5717 48.979C77.6065 48.7351 77.6123 48.4736 77.5891 48.1948C77.5659 47.9044 77.5194 47.5674 77.4497 47.184C77.4497 47.0911 77.4381 46.9923 77.4148 46.8878L79.2273 46.5392C79.3783 47.4106 79.4538 48.3633 79.4538 49.3973C79.5351 49.6297 79.6862 49.8155 79.9069 49.955C80.1277 50.0944 80.4123 50.1641 80.7609 50.1641H80.8654L81.0048 51.4711L80.8654 52.7607H80.7609C80.2148 52.7607 79.7152 52.6155 79.2621 52.3251C78.8206 52.023 78.4663 51.6396 78.1991 51.1749L78.6696 51.2446C78.3675 51.7674 77.9086 52.1508 77.2928 52.3948C76.6771 52.6388 75.8987 52.7607 74.9576 52.7607H74.853V50.1641ZM76.0032 42.5658C76.5144 42.5658 76.8978 42.5658 77.1534 42.5658C77.409 42.5658 77.7866 42.5658 78.2862 42.5658C78.2862 43.0654 78.2862 43.443 78.2862 43.6986C78.2862 43.9542 78.2862 44.3318 78.2862 44.8314C77.775 44.8314 77.3916 44.8314 77.136 44.8314C76.892 44.8314 76.5144 44.8314 76.0032 44.8314C76.0032 44.3318 76.0032 43.9542 76.0032 43.6986C76.0032 43.443 76.0032 43.0654 76.0032 42.5658ZM80.6905 50.1641H81.283C82.2589 50.1641 83.0722 50.0886 83.7228 49.9375C84.3734 49.7749 84.8091 49.5599 85.0298 49.2927C84.9369 48.8977 84.7568 48.4795 84.4896 48.038C84.234 47.5849 83.8448 47.0853 83.322 46.5392C82.8108 45.9816 82.166 45.389 81.3876 44.7616L81.6315 42.4961L88.097 39.7775L88.7941 41.8513L83.7577 43.9949L83.8448 44.0646C84.3328 44.4944 84.8323 45.0231 85.3435 45.6504C85.8664 46.2778 86.2962 46.9865 86.6331 47.7766C86.9817 48.555 87.0688 49.2869 86.8946 49.9724C86.6622 50.9135 86.0464 51.6164 85.0473 52.0811C84.0481 52.5342 82.7934 52.7607 81.283 52.7607H80.6905V50.1641ZM92.8684 58.8428C92.7406 57.4951 92.6302 56.0777 92.5373 54.5906C92.456 53.1035 92.4444 51.8197 92.5024 50.7392C92.5141 50.2512 92.6361 49.8272 92.8684 49.467C93.1124 49.0952 93.4319 48.8222 93.8269 48.6479C94.2219 48.4736 94.6518 48.4272 95.1165 48.5085C95.1862 48.3691 95.2501 48.2297 95.3082 48.0902C95.5871 47.5326 95.8949 47.0504 96.2319 46.6438C96.5804 46.2255 96.9406 45.9002 97.3124 45.6679C97.6958 45.4355 98.085 45.3077 98.48 45.2845C99.5489 45.2264 100.385 45.6969 100.99 46.6961C101.605 47.6836 101.849 48.7931 101.721 50.0247C101.594 51.2446 101.106 52.1043 100.258 52.6039C99.9555 52.7898 99.5837 52.8653 99.1422 52.8305C98.7007 52.8072 98.1314 52.662 97.4343 52.3948C96.7489 52.1159 95.8775 51.6919 94.8203 51.1226C94.7738 51.0877 94.7273 51.0819 94.6808 51.1052C94.6344 51.1284 94.6053 51.1749 94.5937 51.2446C94.5705 52.1276 94.6053 53.1848 94.6983 54.4163C94.7912 55.6479 94.8958 56.8736 95.012 58.0935L95.0991 59.1042L92.9381 59.5922L92.8684 58.8428ZM99.6128 50.4255C99.8567 50.2628 99.9729 49.9492 99.9613 49.4844C99.9613 49.0197 99.8335 48.5956 99.5779 48.2122C99.3223 47.8172 98.997 47.6197 98.602 47.6197C98.3812 47.6197 98.1489 47.7301 97.9049 47.9508C97.6609 48.16 97.4053 48.4853 97.1381 48.9268L96.8767 49.3799C97.5621 49.8097 98.1489 50.1176 98.6368 50.3035C99.1364 50.4894 99.4617 50.5301 99.6128 50.4255ZM107.203 52.7607C106.343 52.7607 105.646 52.5981 105.111 52.2728C104.588 51.9359 104.205 51.4421 103.961 50.7915C103.717 50.1409 103.595 49.316 103.595 48.3168C103.595 46.8994 103.554 45.4587 103.473 43.9949C103.392 42.531 103.281 41.3111 103.142 40.3351L105.303 39.8646C105.431 40.7824 105.53 42.0662 105.599 43.716C105.681 45.3542 105.71 46.7774 105.686 47.9857C105.675 48.5782 105.704 49.0255 105.774 49.3276C105.843 49.6297 105.988 49.8446 106.209 49.9724C106.43 50.1002 106.761 50.1641 107.203 50.1641H107.29L107.429 51.4711L107.29 52.7607H107.203ZM107.121 50.1641H108.044C108.869 50.1641 109.467 50.0711 109.839 49.8853C110.211 49.6877 110.397 49.4089 110.397 49.0487C110.397 48.7931 110.275 48.311 110.031 47.6023C109.799 46.8936 109.607 46.365 109.456 46.0164L111.286 45.0231C111.506 45.511 111.739 46.1733 111.983 47.0098C112.227 47.8463 112.349 48.5724 112.349 49.1882C112.337 50.35 111.96 51.2388 111.216 51.8545C110.484 52.4587 109.427 52.7607 108.044 52.7607H107.121V50.1641ZM108.637 41.5899C109.148 41.5899 109.531 41.5899 109.787 41.5899C110.043 41.5899 110.42 41.5899 110.92 41.5899C110.92 42.0895 110.92 42.4671 110.92 42.7227C110.92 42.9783 110.92 43.3559 110.92 43.8554C110.409 43.8554 110.025 43.8554 109.77 43.8554C109.526 43.8554 109.148 43.8554 108.637 43.8554C108.637 43.3559 108.637 42.9783 108.637 42.7227C108.637 42.4671 108.637 42.0895 108.637 41.5899ZM120.486 52.9699C120.44 52.0985 120.44 51.2388 120.486 50.3906C122.008 50.3906 123.187 50.2919 124.024 50.0944C124.872 49.8969 125.517 49.5832 125.958 49.1533C126.411 48.7234 126.789 48.1019 127.091 47.2886L128.886 47.4803C128.665 48.1193 128.555 48.6363 128.555 49.0313C128.555 49.4263 128.648 49.7168 128.834 49.9027C129.02 50.077 129.31 50.1641 129.705 50.1641L129.845 51.4711L129.705 52.7607C129.229 52.7607 128.787 52.6562 128.381 52.4471C127.974 52.2263 127.649 51.9242 127.405 51.5408C127.172 51.1574 127.056 50.7276 127.056 50.2512L127.405 50.3035C126.905 50.989 126.324 51.5292 125.662 51.9242C125.011 52.3076 124.268 52.5807 123.431 52.7433C122.595 52.8944 121.613 52.9699 120.486 52.9699ZM120.626 52.9699C119.243 52.9699 118.046 52.8305 117.036 52.5516C116.036 52.2612 115.258 51.8487 114.7 51.3143C114.154 50.7682 113.846 50.1118 113.777 49.345C113.73 48.8106 113.777 48.2122 113.916 47.55C114.056 46.8762 114.241 46.2778 114.474 45.755L116.147 46.5567C116.112 46.6612 116.083 46.7658 116.06 46.8703C115.955 47.2305 115.862 47.5907 115.781 47.9508C115.7 48.2994 115.676 48.5956 115.711 48.8396C115.758 49.1185 115.973 49.3799 116.356 49.6238C116.751 49.8562 117.309 50.0421 118.029 50.1815C118.761 50.3209 119.626 50.3906 120.626 50.3906C120.684 51.2388 120.684 52.0985 120.626 52.9699ZM118.935 44.5874C119.435 44.5874 119.807 44.5874 120.051 44.5874C120.294 44.5874 120.666 44.5874 121.166 44.5874C121.166 45.0405 121.166 45.3832 121.166 45.6156C121.177 45.8363 121.183 46.1616 121.183 46.5915C120.672 46.5915 120.294 46.5915 120.051 46.5915C119.807 46.5915 119.435 46.5915 118.935 46.5915C118.935 46.1384 118.935 45.8015 118.935 45.5807C118.935 45.36 118.935 45.0289 118.935 44.5874ZM121.096 44.5874C121.607 44.5874 121.985 44.5874 122.229 44.5874C122.473 44.5874 122.845 44.5874 123.344 44.5874C123.344 45.0405 123.344 45.3832 123.344 45.6156C123.344 45.8363 123.344 46.1616 123.344 46.5915C122.833 46.5915 122.455 46.5915 122.211 46.5915C121.979 46.5915 121.619 46.5915 121.131 46.5915C121.131 46.1384 121.125 45.8015 121.114 45.5807C121.102 45.36 121.096 45.0289 121.096 44.5874ZM135.494 52.7607C134.739 52.7607 134.1 52.5632 133.577 52.1682C133.066 51.7616 132.712 51.1574 132.514 50.3558C132.456 50.1002 132.363 49.6761 132.236 49.0836C132.085 48.3517 131.933 47.6662 131.782 47.0272L133.525 46.4347L133.63 46.8529C133.734 47.3641 133.914 48.0961 134.17 49.0487C134.275 49.4438 134.431 49.7284 134.64 49.9027C134.861 50.077 135.146 50.1641 135.494 50.1641H135.582L135.721 51.4711L135.582 52.7607H135.494ZM129.534 50.1641H129.656C130.504 50.1641 131.155 50.0711 131.608 49.8853C132.061 49.6877 132.317 49.4147 132.375 49.0662L134.031 49.4147C133.868 50.5649 133.426 51.413 132.706 51.9591C131.997 52.4935 130.981 52.7607 129.656 52.7607H129.534V50.1641ZM129.517 54.5732C130.028 54.5732 130.411 54.5732 130.667 54.5732C130.923 54.5732 131.3 54.5732 131.8 54.5732C131.8 55.0728 131.8 55.4503 131.8 55.7059C131.8 55.9615 131.8 56.3391 131.8 56.8387C131.289 56.8387 130.905 56.8387 130.65 56.8387C130.406 56.8387 130.028 56.8387 129.517 56.8387C129.517 56.3391 129.517 55.9615 129.517 55.7059C129.517 55.4503 129.517 55.0728 129.517 54.5732ZM135.388 50.1641H136.242C137.381 50.1641 138.188 50.0653 138.665 49.8678C139.153 49.6703 139.397 49.3682 139.397 48.9616C139.397 48.706 139.28 48.2529 139.048 47.6023C138.827 46.9517 138.624 46.423 138.438 46.0164L140.268 45.0231C140.5 45.511 140.733 46.1558 140.965 46.9575C141.209 47.7591 141.331 48.4678 141.331 49.0836C141.319 50.2687 140.919 51.1807 140.129 51.8197C139.339 52.4471 138.171 52.7607 136.626 52.7607H135.388V50.1641ZM135.998 41.9384C136.579 41.9384 137.015 41.9384 137.305 41.9384C137.596 41.9384 138.026 41.9384 138.595 41.9384C138.595 42.1243 138.595 42.287 138.595 42.4264C138.607 42.5658 138.618 42.7285 138.63 42.9144C138.641 43.2513 138.653 43.5882 138.665 43.9251C138.061 43.9251 137.607 43.9251 137.305 43.9251C137.015 43.9251 136.579 43.9251 135.998 43.9251C135.998 43.4837 135.998 43.1525 135.998 42.9318C135.998 42.711 135.998 42.3799 135.998 41.9384ZM138.508 41.9384C138.833 41.9384 139.077 41.9384 139.24 41.9384C139.402 41.9384 139.635 41.9384 139.937 41.9384C140.344 41.9384 140.744 41.9384 141.139 41.9384C141.139 42.3915 141.139 42.7285 141.139 42.9492C141.139 43.17 141.139 43.4953 141.139 43.9251C140.558 43.9251 140.123 43.9251 139.832 43.9251C139.553 43.9251 139.129 43.9251 138.56 43.9251C138.56 43.7044 138.554 43.5476 138.543 43.4546C138.543 43.35 138.543 43.1874 138.543 42.9666C138.531 42.7575 138.525 42.5891 138.525 42.4613C138.525 42.3218 138.519 42.1476 138.508 41.9384ZM137.602 39.8646C138.043 39.8646 138.368 39.8646 138.578 39.8646C138.798 39.8646 139.124 39.8646 139.553 39.8646C139.553 40.2945 139.553 40.614 139.553 40.8231C139.553 41.0322 139.553 41.3517 139.553 41.7816C139.217 41.7816 138.961 41.7816 138.787 41.7816C138.612 41.7816 138.368 41.7816 138.055 41.7816C137.904 41.7816 137.753 41.7816 137.602 41.7816C137.602 41.5376 137.602 41.3575 137.602 41.2414C137.602 41.1252 137.602 40.9509 137.602 40.7185C137.602 40.521 137.602 40.3758 137.602 40.2829C137.602 40.1899 137.602 40.0505 137.602 39.8646ZM149.498 48.2994C149.23 48.9268 149.021 49.4902 148.87 49.9898C148.731 50.4778 148.649 50.9657 148.626 51.4537C148.615 52.1276 148.737 52.6852 148.992 53.1267C149.259 53.5682 149.654 53.8993 150.177 54.1201C150.712 54.3408 151.368 54.4512 152.147 54.4512C152.96 54.4512 153.669 54.306 154.273 54.0155C154.888 53.7367 155.353 53.3707 155.667 52.9176C155.992 52.4645 156.155 51.9765 156.155 51.4537C156.155 51.0935 156.062 50.5765 155.876 49.9027C155.69 49.2172 155.475 48.5259 155.231 47.8288L155.039 47.2712L156.904 46.2952C157.264 47.2712 157.537 48.1948 157.723 49.0662C157.909 49.9259 158.002 50.7218 158.002 51.4537C158.002 52.4645 157.758 53.3939 157.27 54.2421C156.782 55.1018 156.091 55.7815 155.196 56.281C154.313 56.7806 153.297 57.0304 152.147 57.0304C151.008 57.0304 150.009 56.8039 149.149 56.3507C148.301 55.8976 147.656 55.247 147.215 54.3989C146.785 53.5624 146.611 52.5807 146.692 51.4537C146.727 50.7915 146.86 50.106 147.093 49.3973C147.337 48.677 147.604 48.0089 147.894 47.3932L149.567 48.16L149.498 48.2994ZM151.362 45.2148C151.874 45.2148 152.257 45.2148 152.513 45.2148C152.768 45.2148 153.146 45.2148 153.645 45.2148C153.645 45.7143 153.645 46.0919 153.645 46.3475C153.645 46.6031 153.645 46.9807 153.645 47.4803C153.134 47.4803 152.751 47.4803 152.495 47.4803C152.251 47.4803 151.874 47.4803 151.362 47.4803C151.362 46.9807 151.362 46.6031 151.362 46.3475C151.362 46.0919 151.362 45.7143 151.362 45.2148ZM167.631 39.8646C167.806 41.1891 167.933 42.4845 168.015 43.7509C168.108 45.0056 168.148 46.2662 168.137 47.5326C168.125 48.7176 167.759 49.7342 167.039 50.5823C166.318 51.4305 165.372 52.0811 164.198 52.5342C163.025 52.9757 161.735 53.2197 160.329 53.2661L159.719 50.8786C160.962 50.774 162.031 50.623 162.926 50.4255C163.832 50.2164 164.576 49.8794 165.157 49.4147C165.738 48.95 166.028 48.3342 166.028 47.5674C166.016 46.394 165.964 45.2787 165.871 44.2214C165.778 43.1525 165.639 41.8629 165.453 40.3526V40.3351L167.631 39.8646ZM161.218 41.3808C162.182 43.3559 162.816 45.1509 163.118 46.7658C163.42 48.3807 163.373 49.6703 162.978 50.6346L161.183 50.896C161.543 50.1409 161.549 49.0604 161.201 47.6546C160.852 46.2372 160.248 44.57 159.388 42.653L161.218 41.3808ZM170.203 52.6562C170.32 51.8429 170.372 50.5998 170.36 48.9268C170.36 47.2421 170.314 45.5633 170.221 43.8903C170.128 42.2173 170.017 41.0322 169.89 40.3351L172.068 39.8646C172.161 40.5733 172.248 41.7816 172.329 43.4895C172.422 45.1857 172.469 46.9226 172.469 48.7002C172.469 50.4662 172.399 51.8603 172.26 52.8827L170.203 52.6562ZM190.309 52.7607C189.798 52.7607 189.356 52.6155 188.985 52.3251C188.613 52.0346 188.299 51.6512 188.044 51.1749C187.788 50.6985 187.538 50.1118 187.294 49.4147L187.277 49.345L188.688 48.4562C188.909 49.1068 189.124 49.5541 189.333 49.7981C189.554 50.0421 189.879 50.1641 190.309 50.1641H190.431L190.571 51.4711L190.431 52.7607H190.309ZM180.846 49.1185C180.579 49.7458 180.37 50.3093 180.219 50.8089C180.079 51.2969 179.998 51.7848 179.975 52.2728C179.963 52.9466 180.085 53.5043 180.341 53.9458C180.608 54.3873 181.003 54.7184 181.526 54.9391C182.06 55.1599 182.717 55.2703 183.495 55.2703C184.308 55.2703 185.017 55.125 185.621 54.8346C186.237 54.5557 186.702 54.1898 187.015 53.7367C187.341 53.2836 187.503 52.7956 187.503 52.2728C187.503 51.9126 187.41 51.3956 187.225 50.7218C187.039 50.0363 186.824 49.345 186.58 48.6479L186.388 48.0902L188.253 47.1143C188.613 48.0902 188.886 49.0139 189.072 49.8853C189.258 50.745 189.351 51.5408 189.351 52.2728C189.351 53.2836 189.107 54.213 188.619 55.0611C188.131 55.9209 187.439 56.6005 186.545 57.1001C185.662 57.5997 184.645 57.8495 183.495 57.8495C182.357 57.8495 181.357 57.6229 180.498 57.1698C179.649 56.7167 179.005 56.0661 178.563 55.218C178.133 54.3815 177.959 53.3997 178.04 52.2728C178.075 51.6105 178.209 50.9251 178.441 50.2164C178.685 49.496 178.952 48.828 179.243 48.2122L180.916 48.979L180.846 49.1185ZM182.711 46.0338C183.222 46.0338 183.605 46.0338 183.861 46.0338C184.117 46.0338 184.494 46.0338 184.994 46.0338C184.994 46.5334 184.994 46.911 184.994 47.1666C184.994 47.4222 184.994 47.7998 184.994 48.2994C184.483 48.2994 184.099 48.2994 183.844 48.2994C183.6 48.2994 183.222 48.2994 182.711 48.2994C182.711 47.7998 182.711 47.4222 182.711 47.1666C182.711 46.911 182.711 46.5334 182.711 46.0338ZM190.275 50.1641H190.379C191.285 50.1641 191.988 50.1292 192.488 50.0595C192.988 49.9782 193.342 49.8504 193.551 49.6761C193.76 49.5019 193.888 49.2695 193.934 48.979C193.969 48.7234 193.969 48.433 193.934 48.1077C193.911 47.7707 193.865 47.3932 193.795 46.9749L193.778 46.8878L195.59 46.5392C195.753 47.4106 195.834 48.3633 195.834 49.3973C195.904 49.6297 196.049 49.8155 196.27 49.955C196.49 50.0944 196.781 50.1641 197.141 50.1641H197.228L197.368 51.4711L197.228 52.7607H197.124C196.589 52.7607 196.095 52.6155 195.642 52.3251C195.189 52.023 194.835 51.6396 194.579 51.1749L195.015 51.2794C194.806 51.628 194.515 51.9126 194.144 52.1334C193.772 52.3541 193.284 52.5168 192.68 52.6213C192.076 52.7143 191.309 52.7607 190.379 52.7607H190.275V50.1641ZM195.52 56.7341C195.021 56.7341 194.649 56.7341 194.405 56.7341C194.161 56.7341 193.789 56.7341 193.29 56.7341C193.29 56.281 193.284 55.9383 193.272 55.7059C193.272 55.4852 193.272 55.1599 193.272 54.73C193.783 54.73 194.161 54.73 194.405 54.73C194.649 54.73 195.021 54.73 195.52 54.73C195.52 55.1831 195.52 55.5201 195.52 55.7408C195.52 55.9615 195.52 56.2927 195.52 56.7341ZM193.359 56.7341C192.848 56.7341 192.471 56.7341 192.227 56.7341C191.983 56.7341 191.611 56.7341 191.111 56.7341C191.111 56.281 191.111 55.9383 191.111 55.7059C191.111 55.4852 191.111 55.1599 191.111 54.73C191.622 54.73 191.994 54.73 192.227 54.73C192.471 54.73 192.837 54.73 193.324 54.73C193.324 55.1831 193.33 55.5201 193.342 55.7408C193.354 55.9615 193.359 56.2927 193.359 56.7341ZM197.048 50.1641H197.414C197.844 50.1641 198.244 50.0305 198.616 49.7633C199 49.496 199.342 49.0836 199.644 48.5259L199.906 48.0554C200.254 47.4629 200.591 46.9691 200.917 46.5741C201.242 46.1791 201.585 45.8712 201.945 45.6504C202.305 45.4181 202.683 45.2961 203.078 45.2845C203.81 45.2728 204.402 45.4994 204.855 45.9641C205.32 46.4289 205.709 47.1143 206.023 48.0205C206.29 48.8454 206.511 49.4089 206.685 49.711C206.871 50.0131 207.092 50.1641 207.347 50.1641H207.556L207.696 51.4711L207.556 52.7607H207.347C206.987 52.7607 206.656 52.6678 206.354 52.4819C206.052 52.2844 205.796 52.0114 205.587 51.6628C205.506 51.8603 205.39 52.0462 205.239 52.2205C205.088 52.3832 204.919 52.511 204.733 52.6039C203.839 53.15 202.346 52.7666 200.254 51.4537C199.894 51.8952 199.464 52.2263 198.965 52.4471C198.477 52.6562 197.948 52.7607 197.379 52.7607H197.048V50.1641ZM204.594 50.5998C204.605 50.5068 204.611 50.4139 204.611 50.3209C204.588 49.9027 204.518 49.496 204.402 49.101C204.297 48.706 204.129 48.3633 203.897 48.0728C203.664 47.7707 203.385 47.6197 203.06 47.6197C202.909 47.6197 202.746 47.672 202.572 47.7766C202.41 47.8811 202.235 48.0438 202.049 48.2645C201.875 48.4853 201.689 48.7699 201.492 49.1185L201.352 49.3973C201.817 49.7342 202.276 50.0014 202.729 50.1989C203.182 50.3964 203.571 50.5242 203.897 50.5823C204.234 50.6288 204.466 50.6346 204.594 50.5998ZM207.379 50.1641H207.657C209.528 50.1641 210.905 50.0305 211.788 49.7633C212.671 49.496 213.159 49.0662 213.252 48.4736C213.286 48.2297 213.252 47.9857 213.147 47.7417C213.042 47.4861 212.886 47.2712 212.676 47.0969C212.467 46.911 212.235 46.7948 211.979 46.7484C211.724 46.7135 211.468 46.76 211.213 46.8878C210.957 47.004 210.742 47.184 210.568 47.428C210.393 47.6604 210.301 47.916 210.289 48.1948C210.266 48.7525 210.748 49.2579 211.735 49.711C212.723 50.1525 213.751 50.4023 214.82 50.4603C215.889 50.5184 216.505 50.3209 216.667 49.8678C216.818 49.4612 216.603 49.0371 216.022 48.5956C215.442 48.1541 214.576 47.7127 213.426 47.2712C212.276 46.8181 210.725 46.3243 208.773 45.7899L209.731 43.3849C212.566 44.2563 214.646 45.0753 215.97 45.8421C217.306 46.6089 218.114 47.3757 218.393 48.1425C218.671 48.9093 218.642 49.8272 218.305 50.896C217.934 52.0578 216.865 52.662 215.099 52.7085C213.344 52.7549 211.73 52.3134 210.254 51.384C208.779 50.4545 208.186 49.3218 208.476 47.9857C208.639 47.2537 208.901 46.6031 209.261 46.0338C209.632 45.4529 210.068 45.0114 210.568 44.7094C211.067 44.3957 211.59 44.2679 212.136 44.326C212.705 44.3724 213.217 44.6222 213.67 45.0753C214.123 45.5284 214.46 46.0919 214.681 46.7658C214.901 47.428 214.959 48.0902 214.855 48.7525C214.704 49.7633 214.355 50.5591 213.809 51.14C213.263 51.7209 212.491 52.1392 211.491 52.3948C210.504 52.6388 209.226 52.7607 207.657 52.7607H207.379V50.1641ZM82.2178 85.292C82.8888 85.0277 83.4987 84.7126 84.0477 84.3466C84.6068 83.9806 85.049 83.6198 85.3743 83.264C85.6996 82.9081 85.8623 82.6032 85.8623 82.349C85.8623 82.105 85.7759 81.6323 85.6031 80.9309C85.4302 80.2294 85.2218 79.467 84.9779 78.6436L86.6857 77.9726C86.9297 78.6842 87.1229 79.4365 87.2652 80.2294C87.4075 81.0224 87.4787 81.7289 87.4787 82.349C87.4787 83.02 87.2957 83.6604 86.9297 84.2704C86.5739 84.8803 86.0707 85.4344 85.4201 85.9325C84.7695 86.4306 84.0121 86.8576 83.148 87.2134L82.2178 85.292ZM92.3692 82.7607C91.617 82.7607 91.007 82.6184 90.5394 82.3338C90.0819 82.039 89.7465 81.6069 89.533 81.0376C89.3195 80.4683 89.2127 79.7466 89.2127 78.8723C89.2127 77.6321 89.1772 76.3715 89.106 75.0906C89.0348 73.8097 88.9383 72.7423 88.8163 71.8883L90.7071 71.4766C90.819 72.2797 90.9054 73.4031 90.9664 74.8466C91.0375 76.28 91.0629 77.5253 91.0426 78.5826C91.0324 79.101 91.0579 79.4924 91.1188 79.7567C91.1798 80.021 91.3069 80.2091 91.5001 80.3209C91.6932 80.4328 91.9829 80.4887 92.3692 80.4887H92.4455L92.5675 81.6323L92.4455 82.7607H92.3692ZM92.2231 80.4887H92.7415C93.5955 80.4887 94.3071 80.4226 94.8764 80.2904C95.4457 80.1481 95.8269 79.96 96.02 79.7262C95.9387 79.3806 95.7811 79.0146 95.5473 78.6283C95.3237 78.2318 94.9831 77.7947 94.5256 77.3169C94.0783 76.829 93.5141 76.3105 92.833 75.7615L93.0465 73.7792L98.7038 71.4004L99.3138 73.215L94.9069 75.0906L94.9831 75.1516C95.4101 75.5277 95.8472 75.9903 96.2945 76.5392C96.752 77.0882 97.1281 77.7083 97.4229 78.3996C97.7279 79.0807 97.8041 79.7211 97.6517 80.3209C97.4483 81.1444 96.9095 81.7594 96.0353 82.166C95.161 82.5625 94.0631 82.7607 92.7415 82.7607H92.2231V80.4887ZM107.636 81.7086C106.711 82.0034 105.842 82.0949 105.029 81.9831C104.226 81.8611 103.595 81.551 103.138 81.0529C102.691 80.5547 102.523 79.9194 102.635 79.1468C102.747 78.3132 103.158 77.6117 103.87 77.0424C104.592 76.4731 105.517 75.9801 106.645 75.5633L107.072 77.5456C106.391 77.6981 105.761 77.932 105.181 78.2471C104.612 78.5622 104.312 78.857 104.282 79.1315C104.251 79.3552 104.363 79.5432 104.617 79.6957C104.881 79.8381 105.242 79.9092 105.7 79.9092C106.157 79.899 106.655 79.7872 107.194 79.5737L107.636 81.7086ZM109.695 82.7607C109.085 82.7607 108.572 82.6388 108.155 82.3948C107.748 82.1406 107.423 81.7442 107.179 81.2054C106.935 80.6564 106.757 79.9346 106.645 79.04L106.447 77.5761C106.376 77.017 106.315 76.5545 106.264 76.1885C106.223 75.8225 106.167 75.3651 106.096 74.8161L107.865 74.4349C107.926 74.9737 107.982 75.5125 108.033 76.0513C108.226 77.6575 108.333 78.5521 108.353 78.7351C108.414 79.2433 108.485 79.6195 108.567 79.8635C108.658 80.0973 108.785 80.2599 108.948 80.3514C109.11 80.4429 109.36 80.4887 109.695 80.4887H109.969L110.091 81.6323L109.969 82.7607H109.695ZM109.795 80.4887H110.603C111.325 80.4887 111.848 80.4073 112.174 80.2447C112.499 80.0719 112.662 79.8279 112.662 79.5127C112.662 79.2891 112.555 78.8672 112.342 78.2471C112.138 77.627 111.97 77.1644 111.838 76.8595L113.439 75.9903C113.633 76.4172 113.836 76.9967 114.049 77.7286C114.263 78.4606 114.37 79.0959 114.37 79.6347C114.359 80.6513 114.029 81.429 113.378 81.9678C112.738 82.4964 111.813 82.7607 110.603 82.7607H109.795V80.4887ZM109.978 84.3619C110.425 84.3619 110.761 84.3619 110.984 84.3619C111.208 84.3619 111.538 84.3619 111.976 84.3619C111.976 84.799 111.976 85.1294 111.976 85.353C111.976 85.5767 111.976 85.9071 111.976 86.3442C111.528 86.3442 111.193 86.3442 110.969 86.3442C110.756 86.3442 110.425 86.3442 109.978 86.3442C109.978 85.9071 109.978 85.5767 109.978 85.353C109.978 85.1294 109.978 84.799 109.978 84.3619ZM123.512 86.7407C122.648 86.7407 121.86 86.5577 121.149 86.1917C120.447 85.8258 119.903 85.3022 119.517 84.6211C119.131 83.9501 118.978 83.1623 119.06 82.2575C119.1 81.6984 119.222 81.1088 119.426 80.4887C119.629 79.8584 119.853 79.2789 120.097 78.7503L121.576 79.4213L121.53 79.528C121.286 80.077 121.098 80.5598 120.966 80.9766C120.834 81.3934 120.762 81.8204 120.752 82.2575C120.742 82.6845 120.849 83.0657 121.073 83.4012C121.296 83.7367 121.616 83.9959 122.033 84.1789C122.46 84.372 122.953 84.4686 123.512 84.4686C124.549 84.4686 125.327 84.2043 125.845 83.6757C126.374 83.147 126.628 82.349 126.608 81.2816C126.557 79.5534 126.476 77.9574 126.364 76.4935C126.313 75.5684 126.247 74.6992 126.166 73.8859C126.084 73.0625 126.008 72.3966 125.937 71.8883L127.843 71.4766C127.955 72.3306 128.056 73.9113 128.148 76.219C128.178 77.1848 128.204 78.0234 128.224 78.7351C128.245 79.4467 128.265 80.2599 128.285 81.1749C128.306 82.3236 128.128 83.3148 127.751 84.1484C127.386 84.982 126.842 85.6224 126.12 86.0697C125.398 86.517 124.529 86.7407 123.512 86.7407ZM129.421 85.2463C130.59 84.9922 131.535 84.7075 132.257 84.3924C132.979 84.0874 133.512 83.7265 133.858 83.3097C134.204 82.8929 134.376 82.4049 134.376 81.8458C134.376 81.2664 134.3 80.7022 134.148 80.1532C133.995 79.6042 133.782 79.1468 133.507 78.7808C133.243 78.4148 132.948 78.2013 132.623 78.1404C132.348 78.0794 132.089 78.1658 131.845 78.3996C131.611 78.6232 131.449 78.8977 131.357 79.223C131.276 79.5382 131.301 79.7821 131.433 79.955C131.616 80.2091 132.053 80.3667 132.745 80.4277C133.436 80.4785 134.427 80.4988 135.718 80.4887H136.481L136.603 81.6323L136.481 82.7607C136.125 82.7607 135.805 82.7607 135.52 82.7607C134.432 82.7709 133.563 82.7557 132.913 82.715C132.272 82.6743 131.688 82.5422 131.159 82.3185C130.63 82.0949 130.254 81.734 130.03 81.2359C129.746 80.6157 129.685 79.899 129.847 79.0858C130.02 78.2623 130.361 77.5609 130.869 76.9814C131.388 76.3918 131.982 76.097 132.653 76.097C133.263 76.097 133.817 76.3613 134.315 76.8899C134.824 77.4186 135.215 78.1099 135.49 78.9638C135.774 79.8076 135.917 80.6971 135.917 81.6323C135.917 82.5778 135.683 83.4266 135.215 84.1789C134.758 84.9413 134.092 85.5818 133.217 86.1002C132.353 86.6187 131.322 86.9897 130.122 87.2134L129.421 85.2463ZM136.287 80.4887H136.699C138 80.4887 139.077 80.3463 139.931 80.0617C140.785 79.7771 141.426 79.4467 141.853 79.0705C142.29 78.6944 142.59 78.3335 142.752 77.9879C142.62 77.7642 142.33 77.6066 141.883 77.5152C141.436 77.4135 140.948 77.4033 140.419 77.4847C139.901 77.566 139.464 77.7286 139.108 77.9726C139.667 78.5826 140.211 79.0705 140.739 79.4365C141.278 79.7923 141.858 80.0566 142.478 80.2294C143.108 80.4023 143.82 80.4887 144.613 80.4887H145.085L145.207 81.6323L145.085 82.7607H144.613C143.515 82.7607 142.564 82.6286 141.761 82.3643C140.958 82.0898 140.196 81.6476 139.474 81.0376C138.752 80.4175 137.944 79.5382 137.049 78.3996L137.11 76.8899C137.781 76.2292 138.666 75.8022 139.764 75.609C140.861 75.4159 141.873 75.4769 142.798 75.792C143.723 76.1072 144.277 76.6104 144.46 77.3017C144.643 78.0234 144.369 78.8164 143.637 79.6805C142.905 80.5446 141.903 81.2765 140.633 81.8763C139.362 82.4659 138.051 82.7607 136.699 82.7607H136.287V80.4887ZM139.809 72.2391C140.257 72.2391 140.592 72.2391 140.816 72.2391C141.039 72.2391 141.37 72.2391 141.807 72.2391C141.807 72.6762 141.807 73.0066 141.807 73.2302C141.807 73.4539 141.807 73.7843 141.807 74.2214C141.36 74.2214 141.024 74.2214 140.8 74.2214C140.587 74.2214 140.257 74.2214 139.809 74.2214C139.809 73.7843 139.809 73.4539 139.809 73.2302C139.809 73.0066 139.809 72.6762 139.809 72.2391ZM157.443 82.7607C156.823 82.7607 156.289 82.5676 155.842 82.1813C155.394 81.795 155.049 81.246 154.805 80.5344C154.703 80.2498 154.52 79.3857 154.256 77.9421L155.826 77.5152C155.948 78.2064 156.045 78.7147 156.116 79.04C156.187 79.3552 156.253 79.6042 156.314 79.7872C156.396 80.021 156.523 80.1989 156.696 80.3209C156.879 80.4328 157.128 80.4887 157.443 80.4887H157.534L157.641 81.6323L157.519 82.7607H157.443ZM153.417 80.4887H153.448C153.793 80.4887 154.103 80.4073 154.378 80.2447C154.662 80.0719 154.815 79.8686 154.835 79.6347L156.208 79.8025C156.167 80.3413 156.02 80.8394 155.765 81.2969C155.511 81.7442 155.181 82.1 154.774 82.3643C154.368 82.6286 153.925 82.7607 153.448 82.7607H153.417V80.4887ZM149.346 80.4887H149.422C149.686 80.4887 149.915 80.4175 150.108 80.2752C150.311 80.1329 150.484 79.9245 150.627 79.65C150.749 79.3958 150.85 79.1061 150.931 78.7808C151.013 78.4555 151.079 78.1658 151.13 77.9116C151.14 77.9015 151.145 77.8964 151.145 77.8964C151.145 77.8862 151.145 77.876 151.145 77.8659L152.716 77.9421L152.685 78.0794C152.655 78.2827 152.624 78.5114 152.594 78.7656C152.563 79.0095 152.548 79.2129 152.548 79.3755C152.548 79.7313 152.624 80.0058 152.777 80.1989C152.929 80.3921 153.163 80.4887 153.478 80.4887H153.509L153.631 81.6323L153.509 82.7607H153.478C152.929 82.7607 152.467 82.6133 152.09 82.3185C151.714 82.0237 151.45 81.6069 151.297 81.0681L151.679 81.0376C151.486 81.3934 151.272 81.7035 151.038 81.9678C150.815 82.222 150.56 82.4202 150.276 82.5625C150.001 82.6947 149.701 82.7607 149.376 82.7607H149.346V80.4887ZM144.984 82.7607L144.862 81.6323L144.984 80.4887H145.061C145.376 80.4887 145.686 80.4226 145.991 80.2904C146.296 80.1481 146.525 79.9753 146.677 79.772C146.87 79.528 147.028 79.2535 147.15 78.9485C147.272 78.6436 147.368 78.3386 147.44 78.0336C147.46 78.0133 147.47 77.9929 147.47 77.9726L149.056 78.1404C149.046 78.1912 149.03 78.242 149.01 78.2928C148.959 78.5063 148.903 78.7401 148.842 78.9943C148.781 79.2383 148.746 79.4517 148.736 79.6347C148.725 79.9194 148.771 80.1329 148.873 80.2752C148.985 80.4175 149.152 80.4887 149.376 80.4887H149.407L149.529 81.6323L149.407 82.7607H149.33C148.903 82.7607 148.522 82.6489 148.187 82.4253C147.861 82.1915 147.633 81.8763 147.501 81.4798C147.175 81.8966 146.799 82.2169 146.372 82.4405C145.955 82.654 145.508 82.7607 145.03 82.7607H144.984ZM149.773 74.2977C150.281 74.2977 150.662 74.2977 150.916 74.2977C151.17 74.2977 151.547 74.2977 152.045 74.2977C152.045 74.4603 152.045 74.6026 152.045 74.7246C152.055 74.8466 152.065 74.9889 152.075 75.1516C152.085 75.4464 152.095 75.7412 152.106 76.036C151.577 76.036 151.181 76.036 150.916 76.036C150.662 76.036 150.281 76.036 149.773 76.036C149.773 75.6497 149.773 75.36 149.773 75.1668C149.773 74.9737 149.773 74.684 149.773 74.2977ZM151.968 74.2977C152.253 74.2977 152.467 74.2977 152.609 74.2977C152.751 74.2977 152.955 74.2977 153.219 74.2977C153.575 74.2977 153.925 74.2977 154.271 74.2977C154.271 74.6941 154.271 74.9889 154.271 75.1821C154.271 75.3752 154.271 75.6599 154.271 76.036C153.763 76.036 153.381 76.036 153.127 76.036C152.883 76.036 152.512 76.036 152.014 76.036C152.014 75.8429 152.009 75.7056 151.999 75.6243C151.999 75.5328 151.999 75.3905 151.999 75.1973C151.989 75.0143 151.984 74.8669 151.984 74.7551C151.984 74.6331 151.979 74.4806 151.968 74.2977ZM151.175 72.483C151.562 72.483 151.846 72.483 152.029 72.483C152.223 72.483 152.507 72.483 152.883 72.483C152.883 72.8592 152.883 73.1387 152.883 73.3217C152.883 73.5047 152.883 73.7843 152.883 74.1604C152.589 74.1604 152.365 74.1604 152.212 74.1604C152.06 74.1604 151.846 74.1604 151.572 74.1604C151.44 74.1604 151.308 74.1604 151.175 74.1604C151.175 73.9469 151.175 73.7894 151.175 73.6877C151.175 73.586 151.175 73.4336 151.175 73.2302C151.175 73.0574 151.175 72.9303 151.175 72.849C151.175 72.7677 151.175 72.6457 151.175 72.483ZM157.419 80.4887H157.693C158.069 80.4887 158.42 80.3718 158.745 80.1379C159.081 79.9041 159.381 79.5432 159.645 79.0553L159.843 78.7046C160.138 78.1759 160.423 77.7388 160.697 77.3932C160.972 77.0374 161.261 76.7578 161.566 76.5545C161.882 76.3512 162.212 76.2393 162.558 76.219C163.483 76.1682 164.21 76.5799 164.738 77.4542C165.267 78.3183 165.475 79.2891 165.363 80.3667C165.262 81.4341 164.84 82.1864 164.098 82.6235C163.244 83.1521 161.749 82.6947 159.615 81.2511L160.469 79.3755C161.2 79.8736 161.856 80.2498 162.436 80.5039C163.015 80.7581 163.381 80.8292 163.534 80.7174C163.757 80.5751 163.864 80.3006 163.854 79.894C163.844 79.4873 163.727 79.1163 163.503 78.7808C163.279 78.4352 162.99 78.2623 162.634 78.2623C162.4 78.2623 162.141 78.4148 161.856 78.7198C161.582 79.0146 161.272 79.5178 160.926 80.2294L160.728 80.6869C160.423 81.3782 160.006 81.8966 159.477 82.2423C158.949 82.5879 158.344 82.7607 157.663 82.7607H157.373L157.419 80.4887ZM174.865 86.4052C173.899 86.4052 173.045 86.2171 172.303 85.841C171.561 85.4649 170.987 84.9057 170.58 84.1636C170.184 83.4317 170.021 82.5523 170.092 81.5256C170.133 80.9461 170.25 80.3463 170.443 79.7262C170.646 79.0959 170.875 78.5114 171.129 77.9726L172.608 78.6436L172.563 78.7503C172.319 79.2993 172.13 79.7923 171.998 80.2294C171.866 80.6564 171.795 81.0885 171.785 81.5256C171.765 82.1152 171.871 82.6032 172.105 82.9895C172.349 83.3859 172.7 83.6757 173.157 83.8587C173.615 84.0518 174.184 84.1484 174.865 84.1484C175.424 84.1484 175.943 84.0772 176.42 83.9349C176.908 83.8027 177.325 83.6198 177.671 83.3859C178.027 83.1623 178.296 82.9081 178.479 82.6235C178.367 82.5828 178.23 82.5422 178.067 82.5015C177.915 82.4507 177.727 82.3948 177.503 82.3338C177.279 82.2626 177.015 82.1864 176.71 82.105C176.131 81.9322 175.678 81.7442 175.353 81.5408C175.028 81.3375 174.794 81.0834 174.652 80.7784C174.519 80.4633 174.474 80.0668 174.514 79.589C174.555 78.7859 174.794 78.0285 175.231 77.3169C175.678 76.5951 176.243 76.0208 176.924 75.5938C177.605 75.1668 178.321 74.9686 179.074 74.9991C179.358 75.0093 179.638 75.055 179.912 75.1363C180.197 75.2177 180.4 75.3193 180.522 75.4413L179.882 77.4084C179.77 77.3677 179.633 77.3322 179.47 77.3017C179.308 77.2712 179.155 77.2559 179.013 77.2559C178.586 77.2458 178.174 77.3271 177.778 77.4999C177.381 77.6626 177.046 77.8964 176.771 78.2013C176.497 78.5063 176.314 78.8265 176.222 79.162C176.192 79.3145 176.212 79.4416 176.283 79.5432C176.354 79.6449 176.517 79.7466 176.771 79.8482C177.025 79.9499 177.407 80.0617 177.915 80.1837C178.565 80.3362 179.059 80.5141 179.394 80.7174C179.74 80.9106 179.973 81.119 180.095 81.3426C180.217 81.5663 180.284 81.8153 180.294 82.0898C180.294 82.8319 180.055 83.5333 179.577 84.1941C179.109 84.8549 178.459 85.3886 177.625 85.7953C176.792 86.2019 175.872 86.4052 174.865 86.4052ZM185.121 82.837C184.236 82.837 183.504 82.7048 182.925 82.4405C182.345 82.1762 181.883 81.9017 181.537 81.6171L182.361 80.016L182.437 80.0617C182.793 80.2345 183.164 80.3819 183.55 80.5039C183.936 80.6259 184.389 80.6869 184.907 80.6869C185.456 80.6767 185.904 80.6157 186.249 80.5039C186.605 80.3819 186.839 80.2498 186.951 80.1074C186.971 79.8838 186.905 79.6093 186.752 79.284C186.61 78.9485 186.295 78.5267 185.807 78.0184C185.329 77.4999 184.658 76.9459 183.794 76.3562L184.892 74.3586C185.837 75.0398 186.63 75.7768 187.271 76.5697C187.921 77.3525 188.354 78.1404 188.567 78.9333C188.791 79.7161 188.76 80.4328 188.475 81.0834C188.242 81.6527 187.815 82.0898 187.195 82.3948C186.574 82.6896 185.883 82.837 185.121 82.837ZM189.731 85.2463C190.9 84.9922 191.845 84.7075 192.567 84.3924C193.289 84.0874 193.823 83.7265 194.168 83.3097C194.514 82.8929 194.687 82.4049 194.687 81.8458C194.676 81.2664 194.595 80.7022 194.443 80.1532C194.3 79.6042 194.092 79.1468 193.817 78.7808C193.553 78.4148 193.258 78.2013 192.933 78.1404C192.659 78.0794 192.399 78.1658 192.155 78.3996C191.922 78.6232 191.759 78.8977 191.667 79.223C191.586 79.5382 191.611 79.7821 191.744 79.955C191.886 80.1379 192.135 80.2854 192.491 80.3972C192.857 80.509 193.274 80.5751 193.741 80.5954C194.209 80.6056 194.671 80.57 195.129 80.4887V82.6083C194.499 82.7709 193.853 82.8319 193.192 82.7912C192.542 82.7607 191.957 82.6133 191.439 82.349C190.93 82.0847 190.564 81.7137 190.341 81.2359C190.056 80.6157 189.995 79.899 190.158 79.0858C190.331 78.2623 190.671 77.5609 191.179 76.9814C191.698 76.3918 192.293 76.097 192.964 76.097C193.573 76.097 194.128 76.3613 194.626 76.8899C195.134 77.4186 195.525 78.1099 195.8 78.9638C196.084 79.8076 196.227 80.6971 196.227 81.6323C196.227 82.5778 195.993 83.4266 195.525 84.1789C195.068 84.9413 194.402 85.5818 193.528 86.1002C192.664 86.6187 191.632 86.9897 190.432 87.2134L189.731 85.2463ZM196.852 85.292C197.523 85.0277 198.133 84.7126 198.682 84.3466C199.241 83.9806 199.683 83.6198 200.008 83.264C200.334 82.9081 200.496 82.6032 200.496 82.349C200.496 82.105 200.41 81.6323 200.237 80.9309C200.064 80.2294 199.856 79.467 199.612 78.6436L201.32 77.9726C201.564 78.6842 201.757 79.4365 201.899 80.2294C202.042 81.0224 202.113 81.7289 202.113 82.349C202.113 83.02 201.93 83.6604 201.564 84.2704C201.208 84.8803 200.705 85.4344 200.054 85.9325C199.404 86.4306 198.646 86.8576 197.782 87.2134L196.852 85.292ZM199.216 74.1909C199.663 74.1909 199.998 74.1909 200.222 74.1909C200.446 74.1909 200.776 74.1909 201.213 74.1909C201.213 74.628 201.213 74.9584 201.213 75.1821C201.213 75.4057 201.213 75.7361 201.213 76.1733C200.766 76.1733 200.43 76.1733 200.207 76.1733C199.993 76.1733 199.663 76.1733 199.216 76.1733C199.216 75.7361 199.216 75.4057 199.216 75.1821C199.216 74.9584 199.216 74.628 199.216 74.1909ZM211.817 81.7086C210.892 82.0034 210.023 82.0949 209.209 81.9831C208.406 81.8611 207.776 81.551 207.318 81.0529C206.871 80.5547 206.703 79.9194 206.815 79.1468C206.927 78.3132 207.339 77.6117 208.05 77.0424C208.772 76.4731 209.697 75.9801 210.826 75.5633L211.253 77.5456C210.571 77.6981 209.941 77.932 209.362 78.2471C208.792 78.5622 208.493 78.857 208.462 79.1315C208.432 79.3552 208.543 79.5432 208.798 79.6957C209.062 79.8381 209.423 79.9092 209.88 79.9092C210.338 79.899 210.836 79.7872 211.375 79.5737L211.817 81.7086ZM213.875 82.7607C213.265 82.7607 212.752 82.6388 212.335 82.3948C211.929 82.1406 211.603 81.7442 211.359 81.2054C211.115 80.6564 210.937 79.9346 210.826 79.04L210.627 77.5761C210.556 77.017 210.495 76.5545 210.444 76.1885C210.404 75.8225 210.348 75.3651 210.277 74.8161L212.046 74.4349C212.107 74.9737 212.162 75.5125 212.213 76.0513C212.406 77.6575 212.513 78.5521 212.533 78.7351C212.594 79.2433 212.666 79.6195 212.747 79.8635C212.838 80.0973 212.966 80.2599 213.128 80.3514C213.291 80.4429 213.54 80.4887 213.875 80.4887H214.15L214.272 81.6323L214.15 82.7607H213.875ZM213.975 80.4887H214.784C215.505 80.4887 216.029 80.4073 216.354 80.2447C216.679 80.0719 216.842 79.8279 216.842 79.5127C216.842 79.2891 216.735 78.8672 216.522 78.2471C216.319 77.627 216.151 77.1644 216.019 76.8595L217.62 75.9903C217.813 76.4172 218.016 76.9967 218.23 77.7286C218.443 78.4606 218.55 79.0959 218.55 79.6347C218.54 80.6513 218.209 81.429 217.559 81.9678C216.918 82.4964 215.993 82.7607 214.784 82.7607H213.975V80.4887ZM214.158 84.3619C214.606 84.3619 214.941 84.3619 215.165 84.3619C215.388 84.3619 215.719 84.3619 216.156 84.3619C216.156 84.799 216.156 85.1294 216.156 85.353C216.156 85.5767 216.156 85.9071 216.156 86.3442C215.709 86.3442 215.373 86.3442 215.149 86.3442C214.936 86.3442 214.606 86.3442 214.158 86.3442C214.158 85.9071 214.158 85.5767 214.158 85.353C214.158 85.1294 214.158 84.799 214.158 84.3619ZM145.821 102.761C145.425 102.761 145.099 102.629 144.845 102.364C144.591 102.1 144.464 101.775 144.464 101.388C144.464 101.012 144.591 100.697 144.845 100.443C145.099 100.179 145.425 100.046 145.821 100.046C146.197 100.046 146.517 100.179 146.782 100.443C147.046 100.697 147.178 101.012 147.178 101.388C147.178 101.775 147.046 102.1 146.782 102.364C146.517 102.629 146.197 102.761 145.821 102.761ZM157.208 102.761C156.527 102.761 155.953 102.568 155.485 102.181C155.017 101.795 154.606 101.185 154.25 100.351L152.069 95.3498L153.64 94.4959L155.729 99.4365C155.892 99.8431 156.08 100.123 156.293 100.275C156.507 100.418 156.812 100.489 157.208 100.489H157.406L157.528 101.632L157.406 102.761H157.208ZM152.298 102.837C151.505 102.837 150.829 102.71 150.27 102.456C149.711 102.202 149.223 101.922 148.806 101.617L149.629 100.016L149.69 100.046C149.985 100.209 150.326 100.357 150.712 100.489C151.108 100.621 151.561 100.687 152.069 100.687C152.71 100.687 153.233 100.59 153.64 100.397C154.057 100.204 154.372 100.001 154.585 99.7872L154.616 99.7567L155.637 101.083L155.592 101.144C155.409 101.378 155.19 101.617 154.936 101.861C154.692 102.105 154.341 102.329 153.884 102.532C153.436 102.735 152.908 102.837 152.298 102.837ZM165.747 100.489H165.793C166.088 100.489 166.322 100.402 166.495 100.229C166.667 100.057 166.754 99.833 166.754 99.5585C166.754 99.2942 166.657 98.8875 166.464 98.3386C166.271 97.7795 166.088 97.2915 165.915 96.8747L167.471 96.0208C167.674 96.4274 167.877 96.9967 168.081 97.7286C168.294 98.4606 168.401 99.101 168.401 99.65C168.401 100.219 168.289 100.743 168.065 101.221C167.852 101.688 167.547 102.064 167.15 102.349C166.754 102.624 166.302 102.761 165.793 102.761H165.747V100.489ZM161.661 100.489H161.737C162.001 100.489 162.23 100.418 162.423 100.275C162.627 100.133 162.799 99.9245 162.942 99.65C163.064 99.3958 163.165 99.1061 163.247 98.7808C163.328 98.4555 163.394 98.1658 163.445 97.9116C163.455 97.9015 163.46 97.8964 163.46 97.8964C163.46 97.8862 163.46 97.876 163.46 97.8659L165.031 97.9421L165 98.0794C164.97 98.2827 164.939 98.5114 164.909 98.7656C164.878 99.0095 164.863 99.2129 164.863 99.3755C164.863 99.7313 164.939 100.006 165.092 100.199C165.244 100.392 165.478 100.489 165.793 100.489H165.824L165.946 101.632L165.824 102.761H165.793C165.244 102.761 164.782 102.613 164.406 102.319C164.029 102.024 163.765 101.607 163.613 101.068L163.994 101.038C163.801 101.393 163.587 101.703 163.353 101.968C163.13 102.222 162.876 102.42 162.591 102.563C162.317 102.695 162.017 102.761 161.691 102.761H161.661V100.489ZM157.3 102.761L157.178 101.632L157.3 100.489H157.376C157.691 100.489 158.001 100.423 158.306 100.29C158.611 100.148 158.84 99.9753 158.992 99.772C159.185 99.528 159.343 99.2535 159.465 98.9485C159.587 98.6436 159.684 98.3386 159.755 98.0336C159.775 98.0133 159.785 97.9929 159.785 97.9726L161.371 98.1404C161.361 98.1912 161.346 98.242 161.325 98.2928C161.274 98.5063 161.219 98.7401 161.158 98.9943C161.097 99.2383 161.061 99.4517 161.051 99.6347C161.041 99.9194 161.086 100.133 161.188 100.275C161.3 100.418 161.468 100.489 161.691 100.489H161.722L161.844 101.632L161.722 102.761H161.646C161.219 102.761 160.837 102.649 160.502 102.425C160.177 102.191 159.948 101.876 159.816 101.48C159.49 101.897 159.114 102.217 158.687 102.441C158.27 102.654 157.823 102.761 157.345 102.761H157.3ZM161.859 93.642C162.367 93.642 162.749 93.642 163.003 93.642C163.257 93.642 163.633 93.642 164.131 93.642C164.131 93.8046 164.131 93.9469 164.131 94.0689C164.141 94.1909 164.151 94.3332 164.162 94.4959C164.172 94.7907 164.182 95.0855 164.192 95.3803C163.663 95.3803 163.267 95.3803 163.003 95.3803C162.749 95.3803 162.367 95.3803 161.859 95.3803C161.859 94.994 161.859 94.7043 161.859 94.5111C161.859 94.318 161.859 94.0283 161.859 93.642ZM164.055 93.642C164.34 93.642 164.553 93.642 164.695 93.642C164.838 93.642 165.041 93.642 165.305 93.642C165.661 93.642 166.012 93.642 166.357 93.642C166.357 94.0384 166.357 94.3332 166.357 94.5264C166.357 94.7195 166.357 95.0042 166.357 95.3803C165.849 95.3803 165.468 95.3803 165.214 95.3803C164.97 95.3803 164.599 95.3803 164.101 95.3803C164.101 95.1872 164.096 95.0499 164.085 94.9686C164.085 94.8771 164.085 94.7348 164.085 94.5416C164.075 94.3586 164.07 94.2112 164.07 94.0994C164.07 93.9774 164.065 93.8249 164.055 93.642ZM163.262 91.8273C163.648 91.8273 163.933 91.8273 164.116 91.8273C164.309 91.8273 164.594 91.8273 164.97 91.8273C164.97 92.2035 164.97 92.483 164.97 92.666C164.97 92.849 164.97 93.1286 164.97 93.5047C164.675 93.5047 164.451 93.5047 164.299 93.5047C164.146 93.5047 163.933 93.5047 163.658 93.5047C163.526 93.5047 163.394 93.5047 163.262 93.5047C163.262 93.2912 163.262 93.1337 163.262 93.032C163.262 92.9303 163.262 92.7779 163.262 92.5745C163.262 92.4017 163.262 92.2746 163.262 92.1933C163.262 92.112 163.262 91.99 163.262 91.8273ZM181.139 102.761C180.457 102.761 179.883 102.568 179.415 102.181C178.948 101.795 178.536 101.185 178.18 100.351L176 95.3498L177.57 94.4959L179.659 99.4365C179.822 99.8431 180.01 100.123 180.224 100.275C180.437 100.418 180.742 100.489 181.139 100.489H181.337L181.459 101.632L181.337 102.761H181.139ZM176.228 102.837C175.435 102.837 174.759 102.71 174.2 102.456C173.641 102.202 173.153 101.922 172.736 101.617L173.56 100.016L173.621 100.046C173.916 100.209 174.256 100.357 174.643 100.489C175.039 100.621 175.491 100.687 176 100.687C176.64 100.687 177.164 100.59 177.57 100.397C177.987 100.204 178.302 100.001 178.516 99.7872L178.546 99.7567L179.568 101.083L179.522 101.144C179.339 101.378 179.121 101.617 178.866 101.861C178.622 102.105 178.272 102.329 177.814 102.532C177.367 102.735 176.838 102.837 176.228 102.837ZM181.2 100.489H181.291C182.084 100.489 182.699 100.458 183.136 100.397C183.573 100.326 183.883 100.214 184.066 100.062C184.249 99.9092 184.361 99.7059 184.402 99.4517C184.432 99.2281 184.432 98.974 184.402 98.6893C184.382 98.3945 184.341 98.0641 184.28 97.6981L184.265 97.6219L185.851 97.3169C185.993 98.0794 186.064 98.913 186.064 99.8177C186.125 100.021 186.252 100.184 186.445 100.306C186.638 100.428 186.893 100.489 187.208 100.489H187.284L187.406 101.632L187.284 102.761H187.192C186.725 102.761 186.293 102.634 185.896 102.38C185.5 102.115 185.19 101.78 184.966 101.373L185.347 101.465C185.164 101.77 184.91 102.019 184.585 102.212C184.26 102.405 183.833 102.547 183.304 102.639C182.775 102.72 182.104 102.761 181.291 102.761H181.2V100.489ZM184.448 106.207C184.011 106.207 183.685 106.207 183.472 106.207C183.258 106.207 182.933 106.207 182.496 106.207C182.496 105.811 182.491 105.511 182.481 105.307C182.481 105.114 182.481 104.829 182.481 104.453C182.928 104.453 183.258 104.453 183.472 104.453C183.685 104.453 184.011 104.453 184.448 104.453C184.448 104.85 184.448 105.145 184.448 105.338C184.448 105.531 184.448 105.821 184.448 106.207ZM182.557 106.207C182.11 106.207 181.779 106.207 181.566 106.207C181.352 106.207 181.027 106.207 180.59 106.207C180.59 105.811 180.59 105.511 180.59 105.307C180.59 105.114 180.59 104.829 180.59 104.453C181.037 104.453 181.362 104.453 181.566 104.453C181.779 104.453 182.099 104.453 182.526 104.453C182.526 104.85 182.531 105.145 182.542 105.338C182.552 105.531 182.557 105.821 182.557 106.207ZM187.141 100.489H187.385C189.022 100.489 190.227 100.372 190.999 100.138C191.772 99.9041 192.199 99.528 192.28 99.0095C192.311 98.7961 192.28 98.5826 192.189 98.3691C192.097 98.1454 191.96 97.9574 191.777 97.8049C191.594 97.6422 191.391 97.5406 191.167 97.4999C190.943 97.4694 190.72 97.5101 190.496 97.6219C190.272 97.7236 190.084 97.8811 189.932 98.0946C189.779 98.2979 189.698 98.5216 189.688 98.7656C189.668 99.2535 190.089 99.6957 190.954 100.092C191.818 100.479 192.717 100.697 193.653 100.748C194.588 100.799 195.127 100.626 195.269 100.229C195.401 99.8736 195.213 99.5026 194.705 99.1163C194.196 98.73 193.439 98.3437 192.433 97.9574C191.426 97.5609 190.069 97.1288 188.361 96.6612L189.2 94.5569C191.68 95.3193 193.5 96.036 194.659 96.707C195.828 97.3779 196.535 98.0489 196.779 98.7198C197.023 99.3908 196.997 100.194 196.702 101.129C196.377 102.146 195.442 102.674 193.897 102.715C192.362 102.756 190.948 102.369 189.657 101.556C188.366 100.743 187.848 99.7516 188.102 98.5826C188.244 97.9421 188.473 97.3728 188.788 96.8747C189.114 96.3664 189.495 95.9801 189.932 95.7158C190.369 95.4413 190.826 95.3295 191.304 95.3803C191.802 95.421 192.25 95.6395 192.646 96.036C193.043 96.4325 193.337 96.9255 193.531 97.5152C193.724 98.0946 193.775 98.6741 193.683 99.2535C193.551 100.138 193.246 100.834 192.768 101.343C192.29 101.851 191.614 102.217 190.74 102.441C189.876 102.654 188.758 102.761 187.385 102.761H187.141V100.489ZM198.438 102.669C198.54 101.958 198.586 100.87 198.576 99.406C198.576 97.932 198.535 96.463 198.454 94.9991C198.372 93.5352 198.276 92.4983 198.164 91.8883L200.07 91.4766C200.151 92.0967 200.228 93.154 200.299 94.6484C200.38 96.1326 200.421 97.6524 200.421 99.2078C200.421 100.753 200.36 101.973 200.238 102.867L198.438 102.669ZM201.733 105.246C202.902 104.992 203.848 104.708 204.57 104.392C205.291 104.087 205.825 103.727 206.171 103.31C206.516 102.893 206.689 102.405 206.689 101.846C206.689 101.266 206.613 100.702 206.46 100.153C206.308 99.6042 206.094 99.1468 205.82 98.7808C205.556 98.4148 205.261 98.2013 204.936 98.1404C204.661 98.0794 204.402 98.1658 204.158 98.3996C203.924 98.6232 203.761 98.8977 203.67 99.223C203.589 99.5382 203.614 99.7821 203.746 99.955C203.929 100.209 204.366 100.367 205.057 100.428C205.749 100.479 206.74 100.499 208.031 100.489H208.793L208.915 101.632L208.793 102.761C208.438 102.761 208.117 102.761 207.833 102.761C206.745 102.771 205.876 102.756 205.225 102.715C204.585 102.674 204 102.542 203.472 102.319C202.943 102.095 202.567 101.734 202.343 101.236C202.059 100.616 201.998 99.899 202.16 99.0858C202.333 98.2623 202.674 97.5609 203.182 96.9814C203.7 96.3918 204.295 96.097 204.966 96.097C205.576 96.097 206.13 96.3613 206.628 96.8899C207.136 97.4186 207.528 98.1099 207.802 98.9638C208.087 99.8076 208.229 100.697 208.229 101.632C208.229 102.578 207.995 103.427 207.528 104.179C207.07 104.941 206.404 105.582 205.53 106.1C204.666 106.619 203.634 106.99 202.435 107.213L201.733 105.246ZM208.584 100.489H209.728C210.531 100.489 211.288 100.433 212 100.321C212.722 100.209 213.444 100.026 214.165 99.772C214.897 99.5178 215.665 99.1773 216.468 98.7503L216.514 98.7351C217.286 98.3081 217.886 98.0336 218.313 97.9116L218.374 99.5127C217.845 99.4517 217.332 99.3399 216.834 99.1773C216.336 99.0146 215.746 98.7605 215.065 98.4148C214.648 98.2013 214.236 98.0336 213.83 97.9116C213.433 97.7896 213.067 97.7286 212.732 97.7286C212.346 97.7286 212.005 97.8354 211.71 98.0489C211.415 98.2522 211.182 98.486 211.009 98.7503L209.728 97.8201C210.104 97.0679 210.551 96.4986 211.07 96.1123C211.588 95.726 212.173 95.5379 212.823 95.5481C213.25 95.5582 213.652 95.6345 214.028 95.7768C214.414 95.9089 214.989 96.1631 215.751 96.5392L215.766 96.5545L215.965 96.6612C216.503 96.9357 216.966 97.1492 217.352 97.3017C217.739 97.444 218.166 97.5609 218.633 97.6524L218.709 99.6957C218.486 99.7567 218.054 99.955 217.413 100.29C217.301 100.351 217.093 100.468 216.788 100.641C215.772 101.18 214.892 101.597 214.15 101.892C213.408 102.186 212.656 102.405 211.893 102.547C211.141 102.679 210.267 102.751 209.27 102.761H208.584V100.489ZM211.985 92.1018C212.432 92.1018 212.768 92.1018 212.991 92.1018C213.215 92.1018 213.545 92.1018 213.982 92.1018C213.982 92.539 213.982 92.8693 213.982 93.093C213.982 93.3166 213.982 93.647 213.982 94.0842C213.535 94.0842 213.2 94.0842 212.976 94.0842C212.762 94.0842 212.432 94.0842 211.985 94.0842C211.985 93.647 211.985 93.3166 211.985 93.093C211.985 92.8693 211.985 92.539 211.985 92.1018Z" fill="white"/>
<path d="M47 160.5V143.5H79L47 160.5Z" fill="#DE6262"/>
</g>
<defs>
<clipPath id="clip0_12585_18678">
<rect width="232" height="172.094" fill="white" transform="translate(0 0.90625)"/>
</clipPath>
</defs>
</svg>
