<svg width="122" height="46" viewBox="0 0 122 46" fill="none" xmlns="http://www.w3.org/2000/svg">
<path d="M21.871 12.4989V33.815C21.871 38.3491 18.1661 41.9999 13.6091 41.9999H4V27.9266C4 27.7107 4.29719 27.6322 4.39625 27.8285C5.50576 29.909 7.70497 31.3419 10.2608 31.3419C14.0054 31.3419 17.0169 28.2799 16.8782 24.531C16.7396 21.0764 13.8667 18.2892 10.3797 18.2303C7.78422 18.1911 5.52558 19.6239 4.39625 21.7438C4.29719 21.94 4 21.8615 4 21.6456V12.5186L10.4394 12.5115L12.6428 12.5091L14.8462 12.5067L21.871 12.4989Z" fill="#0065FF"/>
<path d="M12.7022 12.509C13.5028 12.509 14.163 12.5074 14.8462 12.5067C16.2584 11.7347 17.2151 10.2451 17.2151 8.53408C17.2151 6.02998 15.166 4 12.6383 4C10.1107 4 8.0616 6.02998 8.0616 8.53408C8.0616 10.2486 9.02223 11.7409 10.4394 12.5115C11.1739 12.5107 11.9052 12.509 12.7022 12.509Z" fill="#0065FF"/>
<path d="M24.6646 34.1488C24.6646 33.1281 24.8627 32.1271 25.259 31.1849C25.6552 30.2428 26.21 29.3988 26.9232 28.6529C27.6365 27.9267 28.4686 27.3378 29.4394 26.906C30.4103 26.4742 31.4603 26.2583 32.5897 26.2583C33.7388 26.2583 34.7889 26.4742 35.7597 26.906C36.7305 27.3378 37.5626 27.9267 38.2759 28.6529C38.9892 29.3792 39.5439 30.2232 39.9402 31.1849C40.3364 32.1271 40.5345 33.1281 40.5345 34.1488C40.5345 35.1694 40.3364 36.1508 39.9402 37.093C39.5439 38.0351 38.9892 38.8791 38.2759 39.6054C37.5626 40.3316 36.7305 40.9205 35.7597 41.3523C34.7889 41.7841 33.7388 42 32.5897 42C31.4405 42 30.3904 41.7841 29.4394 41.3523C28.4686 40.9205 27.6365 40.3316 26.9232 39.6054C26.21 38.8791 25.6552 38.0351 25.259 37.093C24.8627 36.1312 24.6646 35.1498 24.6646 34.1488ZM27.161 34.1488C27.161 34.8946 27.2997 35.6012 27.5572 36.2686C27.8346 36.936 28.1912 37.5248 28.6667 38.0155C29.1423 38.5258 29.7168 38.9184 30.3706 39.2128C31.0443 39.5072 31.7575 39.6446 32.55 39.6446C33.3624 39.6446 34.0954 39.5072 34.7492 39.2128C35.4229 38.9184 35.9776 38.5258 36.4531 38.0155C36.9286 37.5052 37.3051 36.9163 37.5626 36.2686C37.8202 35.6012 37.9589 34.8946 37.9589 34.1488C37.9589 33.4029 37.8202 32.6963 37.5626 32.0093C37.3051 31.342 36.9286 30.7531 36.4531 30.2428C35.9776 29.7325 35.4031 29.3399 34.7492 29.0455C34.0756 28.7511 33.3425 28.6137 32.55 28.6137C31.7575 28.6137 31.0245 28.7511 30.3706 29.0455C29.697 29.3399 29.1423 29.7325 28.6667 30.2428C28.1912 30.7531 27.8148 31.3223 27.5572 32.0093C27.2799 32.6767 27.161 33.4029 27.161 34.1488Z" fill="#0065FF"/>
<path d="M45.6066 12.6754L45.6264 28.7312C46.4586 27.8676 47.3105 27.2395 48.2219 26.8469C49.1135 26.4543 50.0645 26.2581 51.0353 26.2581C52.2241 26.2581 53.2939 26.474 54.2846 26.9058C55.2554 27.3376 56.1074 27.9264 56.8008 28.6331C57.4942 29.3593 58.049 30.2033 58.4254 31.1455C58.8019 32.0876 59 33.0886 59 34.1486C59 35.1888 58.8019 36.1702 58.4056 37.1124C58.0094 38.0545 57.4546 38.8985 56.7413 39.6248C56.0281 40.351 55.196 40.9202 54.2251 41.3521C53.2543 41.7839 52.2042 41.9998 51.0551 41.9998C49.906 41.9998 48.8559 41.7839 47.9049 41.3521C46.9341 40.9202 46.1019 40.3314 45.3887 39.6051C44.6754 38.8789 44.1207 38.0349 43.7244 37.0928C43.3282 36.1506 43.13 35.1692 43.13 34.1486V13.1465L45.6066 12.6754ZM45.6066 34.1486C45.6066 34.8944 45.7453 35.601 46.0029 36.2684C46.2803 36.9357 46.6369 37.5246 47.1124 38.0153C47.5879 38.5256 48.1625 38.9182 48.8163 39.2126C49.4899 39.507 50.2032 39.6444 50.9957 39.6444C51.808 39.6444 52.5411 39.507 53.1949 39.2126C53.8685 38.9182 54.4233 38.5256 54.8988 38.0153C55.3743 37.5049 55.7507 36.9161 56.0083 36.2684C56.2659 35.601 56.4045 34.8944 56.4045 34.1486C56.4045 33.4027 56.2659 32.6961 56.0083 32.0091C55.7507 31.3417 55.3743 30.7529 54.8988 30.2426C54.4233 29.7322 53.8487 29.3397 53.1949 29.0453C52.5213 28.7508 51.7882 28.6134 50.9957 28.6134C50.2032 28.6134 49.4701 28.7508 48.8163 29.0453C48.1427 29.3397 47.5879 29.7322 47.1124 30.2426C46.6369 30.7529 46.2604 31.3221 46.0029 32.0091C45.7453 32.6764 45.6066 33.4027 45.6066 34.1486Z" fill="#0065FF"/>
<path d="M61 34.2553C61 33.2559 61.1936 32.2758 61.5808 31.3533C61.9681 30.4309 62.5102 29.6045 63.2072 28.8742C63.9042 28.1631 64.7174 27.5866 65.6661 27.1638C66.6148 26.741 67.641 26.5296 68.7446 26.5296C69.8675 26.5296 70.8937 26.741 71.8424 27.1638C72.7911 27.5866 73.6043 28.1631 74.3013 28.8742C74.9983 29.5853 75.5404 30.4116 75.9277 31.3533C76.3149 32.2758 76.5085 33.2559 76.5085 34.2553C76.5085 35.2546 76.3149 36.2155 75.9277 37.138C75.5404 38.0604 74.9983 38.8868 74.3013 39.5979C73.6043 40.309 72.7911 40.8855 71.8424 41.3083C70.8937 41.7311 69.8675 41.9425 68.7446 41.9425C67.6216 41.9425 66.5955 41.7311 65.6661 41.3083C64.7368 40.8855 63.9042 40.309 63.2072 39.5979C62.5102 38.8868 61.9681 38.0604 61.5808 37.138C61.1936 36.1963 61 35.2354 61 34.2553ZM63.4395 34.2553C63.4395 34.9856 63.5751 35.6774 63.8268 36.3308C64.0978 36.9842 64.4463 37.5608 64.911 38.0412C65.3757 38.5409 65.9372 38.9253 66.5761 39.2135C67.2344 39.5018 67.9314 39.6363 68.7058 39.6363C69.4997 39.6363 70.216 39.5018 70.855 39.2135C71.5133 38.9253 72.0554 38.5409 72.52 38.0412C72.9847 37.5416 73.3526 36.965 73.6043 36.3308C73.856 35.6774 73.9915 34.9856 73.9915 34.2553C73.9915 33.525 73.856 32.8331 73.6043 32.1605C73.3526 31.5071 72.9847 30.9305 72.52 30.4309C72.0554 29.9312 71.4939 29.5468 70.855 29.2586C70.1967 28.9703 69.4803 28.8358 68.7058 28.8358C67.9314 28.8358 67.215 28.9703 66.5761 29.2586C65.9178 29.5468 65.3757 29.9312 64.911 30.4309C64.4463 30.9305 64.0785 31.4879 63.8268 32.1605C63.5751 32.8139 63.4395 33.525 63.4395 34.2553Z" fill="#36B37E"/>
<path d="M79.645 19.5149C79.645 17.5547 80.0903 16.0172 81.0003 14.9218C81.9297 13.8072 83.4592 13.173 85.6277 13L85.8213 15.3062C84.5047 15.556 83.5754 15.998 82.9945 16.6322C82.4331 17.228 82.162 18.1504 82.162 19.4188V26.9523H85.6471V29.1432H82.162V41.2506L79.6644 41.731V19.5149H79.645Z" fill="#36B37E"/>
<path d="M87.6026 19.5149C87.6026 17.5547 88.0479 16.0172 88.9579 14.9218C89.8872 13.8072 91.4168 13.173 93.5852 13L93.7789 15.3062C92.4623 15.556 91.5329 15.998 90.9521 16.6322C90.3906 17.228 90.1196 18.1504 90.1196 19.4188V26.9523H93.6046V29.1432H90.1196V41.2506L87.6219 41.731V19.5149H87.6026Z" fill="#36B37E"/>
<path d="M97.8254 36.6574C98.0384 37.061 98.3095 37.4453 98.5999 37.8105C98.9097 38.1756 99.2775 38.4831 99.7035 38.7906C100.575 39.3671 101.504 39.6554 102.511 39.6554C103.266 39.6554 104.002 39.5401 104.737 39.3095C105.473 39.0789 106.209 38.7137 106.964 38.2525L107.429 40.5971C106.557 41.0775 105.706 41.4235 104.854 41.6541C104.002 41.8847 103.227 42 102.53 42C101.407 42 100.381 41.7886 99.4518 41.3658C98.5031 40.943 97.6899 40.3665 96.9929 39.6554C96.2959 38.9443 95.7538 38.1179 95.3665 37.1955C94.9793 36.273 94.7857 35.3121 94.7857 34.3128C94.7857 33.3134 94.9793 32.3333 95.3665 31.4108C95.7538 30.4884 96.2959 29.662 96.9929 28.9317C97.6899 28.2206 98.5031 27.6441 99.4518 27.2213C100.401 26.7985 101.427 26.5679 102.53 26.5679C103.324 26.5679 104.06 26.6832 104.737 26.8946C105.415 27.106 106.035 27.4135 106.596 27.7786C107.158 28.1438 107.642 28.5858 108.068 29.0855C108.494 29.5851 108.842 30.1232 109.133 30.6998L97.8254 36.6574ZM105.609 29.9503C105.163 29.4506 104.679 29.1239 104.137 28.9509C103.595 28.778 103.034 28.6819 102.453 28.6819C101.833 28.6819 101.214 28.8164 100.575 29.0662C99.9358 29.3161 99.355 29.6812 98.8516 30.1232C98.3288 30.5845 97.9029 31.1226 97.5737 31.7375C97.2446 32.3525 97.0703 33.0252 97.0703 33.7554V34.1975C97.0703 34.2743 97.0703 34.332 97.0897 34.3896C97.1091 34.4473 97.1284 34.505 97.1478 34.5818L105.609 29.9503Z" fill="#36B37E"/>
<path d="M111.204 27.2022L113.547 26.7218V29.028C114.321 28.2016 115.057 27.6058 115.773 27.2599C116.49 26.914 117.226 26.741 118 26.741L117.593 29.0856C116.974 29.1817 116.412 29.3739 115.909 29.6814C115.406 29.9889 114.98 30.3924 114.631 30.9305C114.283 31.4494 114.012 32.1028 113.837 32.8716C113.644 33.6403 113.547 34.5435 113.547 35.5621V41.2699L111.204 41.7503V27.2022Z" fill="#36B37E"/>
</svg>
